<svg xmlns="http://www.w3.org/2000/svg" width="201" height="201" viewBox="-20.5 -26.702 201 201" enable-background="new -20.5 -26.702 201 201"><radialGradient id="a" cx="79.5" cy="73.298" r="100" gradientUnits="userSpaceOnUse"><stop offset="0" stop-color="#fff"/><stop offset=".388" stop-color="#FBFBFB"/><stop offset=".806" stop-color="#eee"/><stop offset="1" stop-color="#E5E5E5"/></radialGradient><path fill="url(#a)" d="M-20.5-26.703h200v200.001h-200z"/><path fill="#999" d="M179.361 131.43c-23.44-10.57-59.483-22.086-62.058-25.746-4.742-6.773-7.724-13.277-7.724-13.277h-4.2s-.812-2.848 0-3.795c7.182-8.129 7.182-23.441 7.182-23.441s7.046-1.355 9.484-10.433c5.149-18.699-.948-21.951-.948-21.951s6.91-40.514-15.582-51.354c-7.724-5.826-20.596-7.994-26.016-8.13s-18.292 2.304-26.016 8.13c-22.627 10.84-15.581 51.219-15.581 51.219s-6.098 3.252-.949 21.951c2.439 9.079 9.485 10.434 9.485 10.434s0 15.175 7.182 23.44c.812.947 0 3.793 0 3.793h-4.201s-2.98 6.504-7.723 13.279c-2.575 3.658-38.617 15.174-62.059 25.744-4.064 1.898-8.536 8.537-8.536 8.537v33.467h216.797v-33.467c0 .001-4.471-6.638-8.537-8.4z"/></svg>