<?xml version="1.0" encoding="utf-8"?>
<!-- Generator: Adobe Illustrator 16.0.0, SVG Export Plug-In . SVG Version: 6.00 Build 0)  -->
<!DOCTYPE svg PUBLIC "-//W3C//DTD SVG 1.1//EN" "http://www.w3.org/Graphics/SVG/1.1/DTD/svg11.dtd">
<svg version="1.1" id="Layer_1" xmlns="http://www.w3.org/2000/svg" xmlns:xlink="http://www.w3.org/1999/xlink" x="0px" y="0px" viewBox="0 0 1000 1000" enable-background="new 0 0 1000 1000" xml:space="preserve">
<g id="Donkey_1_">
	<path id="Bottom_Donkey" d="M0,653.631c0-44.838,70.067-58.7,78.085-109.608c0.655-4.174,0.706-8.354,0.753-12.549
		c0.01-0.946-0.3-1.994,0.863-2.987c1.448-0.02,3.168-0.062,4.887-0.062c217.053-0.004,434.107-0.004,651.161-0.003
		c1.111,0,2.225-0.036,3.333,0.023c0.673,0.034,1.338,0.218,1.953,0.325c0,0.521,0.05,0.774-0.008,1.001
		c-1.735,6.811-3.519,13.608-5.219,20.428c-24.896,99.883-69.224,224.664,6.986,310.577c88.873,100.19-127.955,59.671-98.614,8.695
		c-2.042,3.556-23.174,40.164-28.592,31.156c-15.308-25.45-46.087-38.854-62.87-63.121c-10.737-15.545,33.981-23.372,38.873-32.229
		c13.418-24.273,21.153-64.009,17.759-91.817c-11.777-96.476-71.688-87.104-149.314-94.064
		c-14.638-1.314-74.282-17.362-84.497-2.735c-21.346,30.549-45.062,64.916-40.731,103.714c3.257,29.164,19.833,46.997,29.584,73.289
		c10.678,28.782,44.572,31.924,58.557,56.522c2.193,3.859,21.625,35.22,7.148,35.146c-22.396-0.106-77.218,10.468-92.113-11.296
		c-16.17-23.604-31.329-40.732-52.1-60.712c-21.288-20.481,6.036-53.092-18.475-71.66c-17.551-13.285-70.337-35.494-63.623-65.357
		c2.873-12.802,27.339-41.911,16.656-54.742c-8.664-10.404-52.088,89.252-52.279,104.74c-0.343,27.865-4.497,108.174,18.846,129.364
		c25.607,23.261,65.342,50.485,10.535,50.433c-33.421-0.031-107.221-0.907-109.419-53.529c-1.058-25.302,1.031-50.951,1.796-76.248
		c0.542-17.675-17.839-23.75-18.901-40.492c-2.744-43.292,24.982-86.221,25.729-130.984c1.32-79.104-90.61,85.295-80.48,92.921
		C3.875,688.448,4.605,666.48,0,653.631C0,648.445,0.282,654.418,0,653.631z"/>
	<path id="Top_Donkey" d="M80.378,501.989c222.341,0,444.683,0,667.024,0c1.846,0,3.695,0,5.618,0c0.591,0,1.166-1.438,1.673-2.267
		c11.396-18.584,24.44-35.699,39.596-51.377c41.963-43.402,61.799,10.623,105.63,22.533c26.055,7.079,93.117,6.371,99.36-31.609
		c4.092-24.859-10.133-52.703-20.349-75.509c-10.153-22.672-5.566-48.315-10.142-72.184c-3.898-20.332-27.384-33.9-27.951-53.953
		c-0.854-30.187,49.344-43.203,41.815-87.411c-2.411-14.151-23.84-77.447-41.638-45.07c-1.664,3.028-57.013,108.578-59.349,71.9
		c-1.22-19.2-10.79-96.067-40.837-96.067c0.282,0-1.338,0.766-1.875,0.984c-40.205,22.646-20.451,118.168-47.396,125.073
		c-35.518,9.106-71.812,17.225-103.731,36.153c-37.235,22.083-65.757,56.078-104.216,76.674
		c-67.294,36.038-171.688-0.842-240.306-21.522c-84.87-25.578-158.827-39.19-234.89,19.094c-9.432,7.227-18.225,15.09-25.959,24.139
		c-7.1,8.305-13.107,17.188-17.261,27.355C57.685,387.308,59.82,501.989,80.378,501.989z M646.898,437.871l-34.331-26.267
		l43.035,0.619l14.374-40.769l12.709,41.122l43.215,1.072l-35.181,24.795l12.335,41.431l-34.453-25.798l-35.59,24.535
		L646.898,437.871z M480.215,437.871l-34.331-26.267l43.034,0.619l14.374-40.769l12.709,41.122l43.215,1.072l-35.181,24.795
		l12.334,41.431l-34.452-25.798l-35.59,24.535L480.215,437.871z M312.499,437.871l-34.331-26.267l43.034,0.619l14.375-40.769
		l12.71,41.122l43.214,1.072l-35.18,24.795l12.335,41.431l-34.452-25.798l-35.591,24.535L312.499,437.871z M145.814,437.871
		l-34.331-26.267l43.034,0.619l14.375-40.769l12.709,41.122l43.215,1.072l-35.18,24.795l12.335,41.431l-34.452-25.798
		l-35.591,24.535L145.814,437.871z"/>
</g>
<g id="Elephant">
	<path id="Bottom_Elephant" d="M157.25,570.026c0.171-5.659,0.078-5.265,0.128-11.446c0.095-11.704-0.476-19.813-0.429-24.008
		c0.01-0.945,1.049-54.061,1.508-55.519c4.992-15.865-8.839-21.302,43.293-21.302c217.055,0,306.322,0.024,523.377,0.026
		c1.111,0,222.462-0.06,223.57,0c0.673,0.034,19.746,0,19.119,21.952c-0.391,13.703,0.605,75.077,0.598,88.106
		c-0.005,10.292,1.641,313.56-1.342,319.925c-11.125,23.737-38.905,12.419-94.467,14.477
		c-133.836,4.956-92.603,13.405-101.952-152.853c-2.042,3.556,4.614-22.658-27.691-23.092c-33.038-0.445-25.724-2.059-51.446-2.059
		c-18.894,0-30.867,1.029-49.388,1.029c-27.735,0-78.13-0.337-104.881,0.044c-19.597,0.279-23.733,6.13-25.159,30.848
		c-0.846,14.672,1.965,105.796-1.017,126.23c-2.023,13.874-16.893,17.087-27.548,17.985c-29.242,2.465-19.168-0.693-47.201-0.026
		c-33.779,0.805-15.945-0.319-44.241-0.424c-27.723-0.102-27.723-0.102-42.198-0.175c-22.397-0.106-31.75-8.1-31.568-34.472
		c0.225-32.763,1.081-58.398,0.732-89.25c-0.525-46.524,10.289-137.188-28.39-89.837c-11.953,14.633-18.94,96.695-31.382,132.797
		c-4.274,12.405-19.228,47.603-30.657,59.772c-9.423,10.032-22.909,23.271-37.561,28.299c-11.943,4.1-5.577,4.272-49.377,8.584
		C61.513,923.535,4.642,816.292,20.263,740.424c3.827-18.589,17.547-13.787,42.494-13.796c29.936-0.011,34.715-4.029,44.401,7.813
		c11.194,13.688-11.322,77.665,26.464,83.228c38.632,5.687,18.054-58.793,23.327-172.66c0.983-21.245,0.043,10.458-0.129-33.785
		c0.036-18.394,0.109-12.861,0.219-25.896C157.039,580.142,157.225,570.862,157.25,570.026z"/>
	<path id="Top_Elephant" d="M184.258,432.566c222.342,0,234.499-0.304,456.84-0.304c1.849,0,60.842,0.787,62.764,0.787
		c0.592,0,43.273,0,44.244,0c18.322,0,18.322,0,40.128,0c61.735,0,42.186-0.482,92.6-0.323c26.999,0.086,37.044-0.16,66.085-0.745
		c25.189-0.507,22.754-39.876,23.07-66.002c0.302-24.841-2.326-49.613-6.902-73.481c-3.896-20.332-2.215-13.82-8.721-32.798
		c-10.766-31.403,2.658,7.678-15.026-35.411c-5.45-13.28,0,0-25.876-38.619c-1.924-2.871-1.924-2.871-25.324-25.552
		c-13.814-13.39-30.968-21.337-57.72-36.771c0.245,0.142-32.086-13.985-32.623-13.767c-33.468-10.329-6.692-2.315-33.468-10.329
		c-35.127-10.514-28.57-8.828-74.568-14.236c-42.995-5.055-66.153-7.469-123.534-7.436c-76.335,0.043-139.677,7.045-215.279,21.704
		c-87.02,16.874-184.18,99.176-190.42,219.675c-0.614,11.867-2.714,30.043-3.283,42.685c-0.49,10.916-0.279,5.215-0.292,16.637
		C156.911,414.874,161.279,432.568,184.258,432.566z M773.676,298.168l-77.526-0.524l62.282-45.6l-23.457-73.895l62.613,45.146
		l63.029-45.146l-23.588,73.5l62.414,45.994l-77.191,0.28l-24.456,73.57L773.676,298.168z M537.018,297.291l-77.525-0.524
		l62.283-45.599l-23.458-73.895l62.611,45.145l63.03-45.145l-23.587,73.5l62.413,45.994l-77.191,0.28l-24.457,73.571
		L537.018,297.291z M300.781,298.139l-77.526-0.525l62.284-45.598l-23.459-73.895l62.613,45.146l63.03-45.146l-23.588,73.501
		l62.412,45.993l-77.191,0.28l-24.454,73.57L300.781,298.139z M225.415,425.664L225.415,425.664L225.415,425.664L225.415,425.664
		L225.415,425.664L225.415,425.664L225.415,425.664L225.415,425.664L225.415,425.664L225.415,425.664L225.415,425.664z"/>
</g>
</svg>
