<svg xmlns="http://www.w3.org/2000/svg" viewBox="0.259 385.546 1000.001 188.954" enable-background="new 0.259 385.546 1000.001 188.954"><path d="M1000.234 574.5c.021-38.244.026-76.489.026-114.734-1.251-.87-2.941-1.474-3.661-2.663-1.578-2.603-2.512-5.59-4.017-8.245-.789-1.395-2.335-2.337-3.352-3.631-2.078-2.644-3.689-5.768-6.143-7.969-1.924-1.728-4.817-2.385-7.31-3.452-.2-.086-.879.32-.892.524-.075 1.234-.13 2.489.015 3.713.281 2.399.657 4.79 1.094 7.167l.895 1.284c.113.682-.057 1.423-.188 2.124-.037.201-.356.351-.546.524 2.16.991-2.254 5.441 2.63 5-.078.734-.075 1.491-.264 2.195-.122.46-.523.845-.799 1.264 4.121.866.178 3.31.945 4.831-2.393.575-4.777 1.183-7.183 1.701-.513.111-1.095-.09-1.644-.161-.574-.074-1.147-.165-1.721-.249.26-.177.508-.469.782-.495.253-.025.528.332.803.348.44.025 1.126.065 1.287-.178.484-.734.766-1.603 1.126-2.419-1.008.038-2.019.048-3.023.123-.721.054-1.436.193-2.152.295.36-1.204.584-2.475 1.126-3.591.444-.917 1.268-1.651 1.923-2.466-.845-.341-1.688-.683-2.533-1.02l-.471-.158c.161-.131.315-.27.484-.39.23-.166.472-.319.709-.478-.341-.086-.743-.083-1.01-.272-1.331-.943-2.569-2.03-3.952-2.885-1.152-.712-2.466-1.161-3.695-1.75-.327-.156-.611-.4-.916-.604.276-.157.598-.268.818-.482.228-.222.573-.667.495-.806-1.58-2.811-3.01-5.74-4.905-8.327-1.278-1.745-3.233-2.993-4.875-4.476-.308-.277-.567-.607-.85-.913l1.352-.903c.398-.271.791-.553 1.187-.829-.488-.229-1.094-.346-1.444-.709-1.394-1.441-2.84-2.863-4.023-4.472-2.274-3.088-4.379-6.302-6.588-9.44-.07-.1-.755.099-.754.104.296 2.147.658 4.285.938 6.435.086.66-.146 1.362-.05 2.02.05.346.586.595.738.956.422.998.722 2.047 1.136 3.048.755 1.828-.448 1.878-1.689 1.938-.058.002-.158.26-.153.263.383.239.836.402 1.149.707.654.633 1.233 1.342 1.844 2.019-.573.116-1.146.227-1.714.364-.031.008-.048.346.001.367.495.221 1.004.41 1.512.603l.663.229c-.213.117-.493.388-.629.329-2.022-.886-4.031-1.807-6.034-2.74-.513-.239-.974-.594-1.49-.82-.757-.333-1.543-.599-2.317-.893.477-.647 1.111-1.233 1.389-1.957.338-.882.418-1.875.477-2.828.006-.095-.913-.285-1.413-.362-1.831-.284-3.677-.482-5.488-.857-.336-.069-.533-.807-.795-1.235.352-.185.756-.31 1.044-.565.629-.558 1.198-1.183 1.793-1.78-.596-.347-1.175-.727-1.791-1.032-.771-.381-1.571-.7-2.359-1.047.533-.252 1.111-.44 1.584-.777.387-.275.646-.728.962-1.102-.378-.243-.738-.522-1.138-.725-1.657-.844-3.533-1.423-4.903-2.596-.66-.565-.061-2.421-.61-3.351-.592-1.002-1.867-1.596-2.83-2.386-.242-.199-.487-.437-.631-.709-1.783-3.399-3.54-6.813-5.373-10.185-.045-.082-1.323.353-1.312.417.374 2.073.833 4.131 1.288 6.188.044.199.232.404.197.575-.354 1.746-.206 5.47.305 6.956l.069.327c-2.378.248-5.411 1.499-6.964.484-1.861-1.217-2.395-4.401-3.625-6.668-.976-1.798-2.117-3.51-3.276-5.197-.047-.068-1.536.6-1.505.771.65 3.604 1.52 7.168 2.131 10.777.284 1.682-.109 3.485.23 5.147.235 1.153 1.3 2.113 1.788 3.248.24.561.015 1.321 0 1.99-.587-.277-1.491-.424-1.675-.868-.199-.485.268-1.245.45-1.884.038-.134.184-.311.141-.383-1.765-2.917-3.51-5.849-5.376-8.699-.2-.307-1.348-.406-1.661-.139-.589.502-1.154 1.305-1.259 2.048-.289 2.061-.348 4.153-.455 6.235-.008.143.319.327.517.451.546.345 1.105.668 1.659 1-.442.125-.889.239-1.326.382-.108.035-.283.208-.27.232.317.599.692 1.168.982 1.778.446.936 1.144 1.886 1.182 2.852.063 1.609-.288 3.24-.516 4.854-.062.438-.541.929-.428 1.257.408 1.186 1.402 2.309 1.412 3.461.02 2.166-.482 4.339-.815 6.501-.019.122-.601.327-.694.243-1.351-1.223-2.68-2.473-3.945-3.782-.086-.088.655-.898.547-1.057-.733-1.073-1.784-1.965-2.359-3.104-.668-1.322-.83-2.893-1.443-4.251-.494-1.092-1.392-1.993-2.003-3.041-1.201-2.063-2.291-4.192-3.501-6.251-.641-1.089-1.437-2.085-2.163-3.123-.343.665-.642 1.358-1.042 1.986-.325.508-1.016 1.392-1.128 1.332-1.582-.846-3.138-1.762-4.603-2.797-.753-.532-1.254-1.425-2.013-1.943-.158-.108-.93 1-1.458 1.041-.728.056-1.744-.141-2.193-.634-1.293-1.415-2.224-3.182-3.605-4.482-.405-.382-1.914.175-2.781.587-.701.333-1.197 1.095-1.785 1.666-.26-.541-.398-1.209-.804-1.6-.94-.903-1.96-1.744-3.035-2.481-2.309-1.582-4.516-3.613-7.086-4.377-1.153-.343-3.068 1.936-4.661 2.988-1.106.73-2.266 1.38-3.374 2.104-.666.436-1.257.985-1.928 1.411-.342.217-1.139.311-1.13.393.083.747.258 1.493.491 2.212.161.497.458.95.695 1.423-.94.304-1.871.646-2.826.896-.48.126-1.212-.101-1.452.169-.256.285-.099.974-.059 1.48.045.55.163 1.092.249 1.638-.48-.024-.985-.149-1.434-.041-.374.09-1.008.528-.973.685.637 2.751 1.244 5.519 2.097 8.206.658 2.074 1.652 4.041 2.479 6.063.061.147-.028.357-.048.538-.275-.106-.544-.231-.826-.317-2.784-.843-5.58-1.647-8.337-2.571-.248-.083-.08-1.122-.386-1.365-1.136-.901-2.306-1.854-3.621-2.409-1.252-.528-2.71-.555-4.065-.858-.888-.198-1.754-.497-2.63-.751.254-.164.5-.45.765-.47.861-.065 1.739.047 2.594-.052 2.238-.257 4.479-.527 6.689-.939.448-.084.776-.812 1.16-1.244-.617-.233-1.235-.666-1.854-.665-2.053.004-4.104.167-6.158.252-.091.004-.2-.143-.281-.237-.384-.443-.711-.954-1.158-1.317-.294-.238-.759-.267-1.146-.389.46-.244.895-.574 1.384-.716 1.226-.355 2.504-.548 3.704-.968.493-.172.84-.761 1.252-1.161-.816.018-1.635.084-2.448.041-.988-.052-1.972-.195-2.957-.299.533-.567 1.057-1.143 1.603-1.695.201-.204.677-.417.648-.522-.154-.569-.686-1.551-.623-1.586.866-.499 1.826-.834 2.716-1.299.155-.081.199-.805.117-.843-.414-.188-.884-.317-1.34-.341-2.166-.111-4.335-.181-6.502-.266.587-.438 1.192-.856 1.758-1.322.684-.564 1.357-1.148 1.972-1.785.08-.083-.181-.743-.351-.774-.696-.129-1.421-.174-2.13-.146-1.101.044-2.197.174-3.296.268.747-.369 1.538-.674 2.226-1.132.416-.277 1.036-.996.941-1.163-.449-.793-1.016-1.588-1.724-2.152-1.218-.969-2.571-1.768-3.868-2.638.717-.584 1.458-1.143 2.134-1.77.167-.155.239-.738.163-.78-1.182-.657-2.41-1.231-3.59-1.894-.24-.135-.355-.541-.47-.845-.682-1.807-1.315-3.633-2.057-5.415-.09-.213-1.022-.356-1.076-.259-.489.876-1.044 1.779-1.228 2.742-.144.761.208 1.615.34 2.428l-2.332.032c.105-.779.193-1.561.329-2.334.031-.179.362-.417.321-.482-1.377-2.21-2.782-4.402-4.184-6.596-.773.943-1.497 1.933-2.342 2.807-.399.412-1.071.546-1.535.913l-.372.87c-.459.166-1.327.313-1.438.122-.419-.712-.501-1.615-.891-2.352-.697-1.323-1.525-2.577-2.3-3.859h-1.302c.339 1.975.682 3.949 1.014 5.924.027.161.053.423-.034.488-3.892 2.907 1.623 1.15 1.145 2.323-.111.272-.331.527-.561.717-.37.308-.914.479-1.147.854-.159.256.101.762.145 1.16.022.206-.086.575-.019.605.619.271 1.263.484 1.9.715-1.279.777-2.556 1.561-3.843 2.325-.157.093-.376.084-.566.123.49.295.973.602 1.472.88.181.101.396.14.6.19.763.191 1.526.374 2.29.56-.863.023-1.727.068-2.59.062-.813-.006-1.628-.064-2.441-.1.827.374 1.678.702 2.473 1.135.618.337 1.166.804 1.744 1.213-1.325.729-2.633 1.497-4.002 2.132-.149.07-.638-.638-.994-.956-1.28-1.146-2.433-2.521-3.892-3.362-2.377-1.371-5.188-2.291-2.293-5.692.157-.184.164-.496.24-.748-4.051-.775-2.142-4.909-3.925-6.922-.729-.824-1.808-1.345-2.756-1.96-.064-.042-.544.299-.53.43.205 1.901.37 3.814.732 5.688.34 1.756.9 3.47 1.364 5.203-.557-.521-1.217-.971-1.639-1.584-.355-.519-.461-1.22-.634-1.852-.432-1.588-.837-3.184-1.263-4.774-.027-.102-.128-.184-.194-.274-.331.376-.938.756-.932 1.128.008.659.376 1.319.62 1.968.089.237.253.445.383.667l-2.412.223c.699.404 1.452.746 2.049 1.268.111.096-.725 1.089-.572 1.364.272.491.43.361-.122.651-.188.099-.427.49-.367.613.701 1.429 1.583 2.788 2.096 4.275.116.335-1.546 1.189-1.467 1.646.298 1.749 1.374 3.423 1.413 5.143.06 2.577-.48 5.174-.925 7.733-.017.096-1.712-.101-2.625-.162.161-.974.271-1.959.504-2.915.122-.501.457-.951.695-1.424-5.614-.743-.369-3.146-.699-4.7-.089-.415.059-.879.099-1.32l-1.147.771c-.372.245-1.025.741-1.078.684-.482-.52-1.022-1.081-1.242-1.732-.938-2.769-1.803-5.563-2.622-8.369-.178-.605.113-1.37-.122-1.931-.37-.881-1.005-1.652-1.526-2.47-.379.898-.759 1.795-1.135 2.694l-.229.602c-.508-.403-1.032-.789-1.52-1.216-.557-.488-1.081-1.013-1.62-1.522-.281.857-.83 1.726-.795 2.57.126 3.037.505 6.063.654 9.101.033.668-.483 1.362-.746 2.045-.552-.482-1.165-.91-1.644-1.457-1.296-1.485-2.535-3.021-3.797-4.535-.551 1.798-1.11 3.593-1.638 5.397-.057.194.074.444.118.668-.273-.07-.778-.123-.785-.213-.105-1.461-.072-2.936-.244-4.387-.062-.518-.586-.979-.894-1.47-.147-.234-.226-.61-.431-.696-1.1-.465-2.229-.858-3.349-1.276.153 1.1.382 2.197.412 3.3.008.289-.775.541-.889.905-.386 1.235-.604 2.522-.97 3.765-.057.188-.564.242-.863.358.38.648.713 1.33 1.153 1.935.34.466 1.238.972 1.157 1.224-.402 1.247-.951 2.479-1.663 3.576-.224.346-1.114.259-1.699.37.688.448 1.362.919 2.068 1.336.488.289 1.021.503 1.534.75-.464.032-.936.021-1.387.115-.252.052-.688.369-.671.41.378.893.791 1.771 1.235 2.633.312.603.683 1.175 1.026 1.76-.449.217-1.241.373-1.29.658-.271 1.549-.633 3.169-.42 4.688.169 1.202 1.134 2.289 1.671 3.461.016.033-.784.531-1.246.674-.791.243-1.615.377-2.426.557.574.425 1.151.845 1.72 1.278.134.102.223.258.347.374.598.565 1.201 1.125 1.802 1.687-.229.1-.5.153-.674.312-.161.146-.193.423-.324.614-.568.833-1.128 1.675-1.746 2.47-.164.211-.523.27-.793.398 1.501 1.336 2.991 2.685 4.519 3.991.202.172.593.124.896.178-.285.048-.574.085-.857.145-1.586.339-3.174.67-4.751 1.047-.145.035-.33.534-.306.552.48.346.986.656 1.492.965.964.589 1.932 1.172 2.897 1.757-.677.198-1.682.186-1.968.634-.836 1.306-1.521 2.749-2.008 4.225-.494 1.497-.68 3.098-1.007 4.651l-.134.271c.271.241.524.55.848.671.88.33 1.789.578 2.686.859-1.306 1.384-2.594 2.786-3.932 4.138-.328.331-.823.498-1.242.74.421.438.83.888 1.27 1.306.126.119.342.144.517.211l-.895.087-2.119.195c.758.277 1.713.356 2.229.875.922.927 2.224 2.124 2.213 3.196-.024 2.375-.739 4.747-1.249 7.104-.057.262-.618.611-.925.593-6.347-.395-13.839 1.143-18.771-1.721-7.952-4.615-15.786-4-23.975-4.263-2.045-.065-4.456-.667-6.016-1.893-6.938-5.449-13.511-11.364-20.467-16.788-2.532-1.974-5.736-3.105-8.682-4.523-7.843-3.774-15.686-7.552-23.592-11.19-1.555-.716-3.591-.462-5.059-1.279-2.713-1.511-5.227-3.408-7.724-5.278-5.192-3.89-11.207-2.848-17.041-3.043-6.199-.208-12.401-.819-18.59-.687-2.468.053-4.875 2.261-7.358 2.368-4.558.197-9.299.18-13.689-.882-5.133-1.24-9.903-5.02-14.958-5.287-6.578-.349-13.304 1.548-19.922 2.727-3.789.675-7.882 1.146-11.131 2.968-4.076 2.286-7.126 6.386-11.182 8.728-3.618 2.088-7.918 3.333-12.072 4.059-4.015.702-8.459-.522-12.277.594-2.815.824-5.271 3.779-7.269 6.279-2.659 3.329-2.387 8.556-10.097 6.633-4.935-1.23-11.554 2.901-16.999 5.504-5.814 2.779-10.536-.095-15.671-1.476-1.696-.457-3.953.043-5.155-.906-2.979-2.354-5.327-5.498-8.263-7.92-1.937-1.598-4.982-3.994-6.604-3.418-4.547 1.613-8.602 4.604-12.873 7.011-3.806 2.143-7.501 4.562-11.499 6.263-5.513 2.344-11.273 4.1-16.91 6.156-5.955 2.172-11.749 5.491-17.875 6.28-5.395.696-11.144-1.456-16.75-2.252-2.573-.364-5.242-.219-7.758-.788-4.027-.912-7.908-2.575-11.962-3.216-1.818-.288-3.864 1.375-5.881 1.719-4.716.806-10.757-.253-13.967 2.313-8.141 6.507-17.584 6.236-26.759 7.688-14.165 2.242-28.361 4.292-42.566 6.265-9.931 1.38-19.879 2.712-29.858 3.645-5.597.523-11.281.034-16.913.294-4.31.199-8.612 1.327-12.893 1.203-6.748-.196-13.468-1.196-20.213-1.673-6.764-.477-13.763.202-20.257-1.329-7.133-1.683-14.071-4.809-20.613-8.227-7.142-3.731-14.194-3.605-21.681-2.143-4.563.891-9.218 1.404-13.856 1.803-4.445.381-8.946.766-13.38.484-7.277-.461-14.662-2.731-21.747-1.948-12.082 1.336-23.973 4.422-35.913 6.917-.421.088-.653 1.701-.748 2.627-.396 3.884-.708 7.778-1.05 11.669 0 25.658.005 51.315.019 76.974h999.96zm-26.222-106.396c.42.016.83.281 1.244.438l-1.249.538-1.329-.647c.445-.12.894-.344 1.334-.329zm-31.487-29.931c.861.414 1.665.952 2.488 1.447l-1.379.692-1.969-1.636c.293-.18.692-.583.86-.503zm-33.579-21.636c.574.054 1.134.269 2.501.624-1.053.459-1.368.726-1.553.654-.682-.262-1.32-.635-1.975-.966.344-.112.698-.342 1.027-.312zm-14.428 27.863c.385.512.741 1.051 1.041 1.616.054.102-.176.354-.416.797l-1.321-2.041c.24-.13.671-.404.696-.372zm-63.279-8.61c.294.258.841.519.84.775-.007 1.614-.136 3.227-.23 4.947-.753-.796-2.147-1.616-2.271-2.595-.122-.957 1.055-2.078 1.661-3.127zm-4.059 9.771l5.803 3.988c-1.512.236-1.819.305-2.131.33-1.388.11-2.777.209-4.166.312.166-1.545.33-3.087.494-4.63zm-40.554-36.961c.341-.506 1.469-.943 2.015-.749 1.059.38 1.95 1.224 2.912 1.875-.152.192-.273.427-.463.569-.545.406-1.118.775-1.68 1.159.393.24.791.472 1.172.729.154.104.271.262.405.396l-2.692 2.148-.483-.831.417-.233c-.551-.945-1.231-1.843-1.608-2.854-.25-.67-.346-1.693.005-2.209zm-17.565 16.932c.232-.017.737.49.702.562-.239.493-.589.932-.901 1.389l-.665-1.293c.333-.273.586-.638.864-.658zm-11.04-26.988c.43.086.834.31 1.247.477-.403.251-.784.559-1.221.719-.138.051-.421-.293-.931-.677.491-.295.728-.554.905-.519z"/><path d="M787.761 385.547c.339 1.975.682 3.949 1.014 5.924.026.161.053.423-.034.488-3.892 2.907 1.623 1.15 1.145 2.324-.111.272-.33.527-.561.717-.37.307-.914.478-1.147.854-.159.256.101.762.145 1.16.022.206-.086.575-.019.605.619.271 1.264.485 1.9.716-1.28.777-2.556 1.561-3.843 2.324-.157.093-.376.085-.566.123.489.296.974.603 1.472.88.181.101.396.141.6.191l2.29.56c-.863.022-1.727.067-2.59.062-.813-.005-1.628-.063-2.441-.1.827.374 1.678.702 2.473 1.135.618.337 1.165.804 1.744 1.214-1.325.729-2.633 1.496-4.002 2.132-.149.069-.638-.638-.994-.957-1.28-1.145-2.433-2.52-3.892-3.361-2.377-1.371-5.188-2.291-2.293-5.693.157-.184.164-.495.24-.748-4.051-.774-2.142-4.909-3.925-6.922-.729-.825-1.808-1.345-2.755-1.96-.065-.042-.545.299-.531.429.205 1.901.37 3.814.732 5.688.34 1.757.9 3.471 1.364 5.203-.557-.521-1.217-.97-1.638-1.583-.356-.519-.463-1.221-.635-1.853-.432-1.588-.837-3.184-1.263-4.774-.027-.102-.128-.184-.194-.274-.331.376-.937.756-.932 1.127.008.66.376 1.319.62 1.968.089.237.253.445.383.667l-2.412.223c.699.404 1.453.746 2.05 1.267.109.096-.726 1.09-.573 1.365.272.491.43.36-.122.65-.188.099-.427.491-.367.614.701 1.429 1.583 2.787 2.096 4.275.116.334-1.545 1.188-1.467 1.646.298 1.748 1.374 3.423 1.413 5.142.06 2.577-.479 5.174-.925 7.734-.017.095-1.712-.102-2.625-.162.161-.974.271-1.959.504-2.916.122-.501.457-.951.695-1.424-5.614-.742-.368-3.146-.699-4.7-.089-.414.059-.879.099-1.32l-1.147.771c-.372.245-1.025.741-1.078.685-.483-.52-1.022-1.082-1.242-1.733-.938-2.769-1.802-5.563-2.622-8.369-.177-.605.114-1.37-.122-1.931-.37-.882-1.005-1.652-1.526-2.47-.379.898-.759 1.795-1.134 2.694l-.229.602c-.508-.403-1.032-.789-1.52-1.215-.557-.488-1.081-1.013-1.62-1.522-.281.857-.83 1.726-.795 2.569.126 3.037.505 6.063.654 9.101.033.668-.483 1.362-.746 2.045-.552-.481-1.165-.91-1.644-1.457-1.296-1.484-2.535-3.021-3.797-4.535-.551 1.798-1.11 3.593-1.638 5.397-.057.195.074.444.118.668-.273-.069-.778-.123-.785-.213-.105-1.461-.073-2.936-.244-4.387-.062-.518-.586-.979-.894-1.469-.147-.235-.226-.61-.43-.697-1.101-.464-2.23-.858-3.35-1.275.153 1.099.382 2.196.412 3.299.008.29-.774.541-.889.905-.386 1.235-.604 2.522-.97 3.765-.057.188-.564.242-.863.358.38.648.713 1.331 1.153 1.935.34.467 1.238.972 1.157 1.224-.401 1.247-.951 2.479-1.663 3.576-.225.346-1.113.26-1.699.371.688.447 1.362.919 2.068 1.336.488.288 1.021.502 1.534.749-.464.033-.936.021-1.387.115-.253.053-.688.37-.671.411.379.892.791 1.771 1.236 2.633.311.603.682 1.174 1.025 1.759-.449.216-1.241.372-1.291.658-.27 1.549-.632 3.169-.419 4.688.169 1.202 1.135 2.289 1.671 3.461.016.034-.784.531-1.246.674-.791.244-1.615.378-2.426.558.574.425 1.152.845 1.72 1.278.134.101.224.257.347.373.598.565 1.201 1.125 1.802 1.687-.229.1-.499.153-.674.312-.161.146-.194.423-.324.614-.569.833-1.128 1.675-1.746 2.47-.164.211-.523.27-.793.398 1.501 1.336 2.991 2.686 4.519 3.991.202.173.594.124.896.178-.285.048-.574.085-.857.146-1.585.338-3.174.67-4.751 1.047-.145.034-.33.533-.306.551.48.346.986.657 1.492.966.964.588 1.932 1.171 2.897 1.756-.677.198-1.682.187-1.968.634-.836 1.306-1.521 2.75-2.008 4.225-.494 1.498-.68 3.098-1.006 4.651l-.135.271c.271.24.525.549.848.67.879.33 1.789.579 2.686.859-1.306 1.384-2.594 2.786-3.932 4.138-.328.332-.823.498-1.242.74.421.438.83.889 1.27 1.306.126.119.342.144.517.211l-.895.088-2.119.194c.757.277 1.713.356 2.229.875.922.927 2.224 2.124 2.213 3.197-.024 2.374-.739 4.746-1.249 7.103-.057.262-.618.611-.925.593-6.347-.395-13.839 1.143-18.771-1.721-7.952-4.615-15.786-4-23.974-4.262-2.047-.066-4.457-.668-6.018-1.893-6.937-5.45-13.51-11.365-20.466-16.789-2.532-1.974-5.737-3.105-8.682-4.523-7.843-3.774-15.686-7.552-23.592-11.19-1.555-.716-3.591-.462-5.059-1.278-2.713-1.512-5.227-3.409-7.724-5.279-5.192-3.889-11.207-2.847-17.041-3.042-6.199-.208-12.401-.819-18.59-.688-2.468.053-4.875 2.261-7.358 2.368-4.558.198-9.298.18-13.689-.882-5.133-1.24-9.903-5.02-14.958-5.287-6.578-.348-13.304 1.548-19.922 2.727-3.789.676-7.882 1.146-11.131 2.969-4.076 2.285-7.126 6.385-11.182 8.727-3.618 2.089-7.918 3.333-12.072 4.06-4.015.702-8.459-.523-12.277.594-2.815.823-5.271 3.779-7.268 6.279-2.66 3.328-2.388 8.555-10.098 6.632-4.934-1.229-11.554 2.901-16.999 5.505-5.814 2.778-10.536-.096-15.671-1.477-1.696-.456-3.953.043-5.154-.906-2.98-2.354-5.328-5.497-8.264-7.92-1.936-1.598-4.982-3.994-6.604-3.418-4.547 1.613-8.601 4.604-12.873 7.011-3.806 2.143-7.501 4.563-11.499 6.263-5.513 2.344-11.273 4.1-16.91 6.156-5.955 2.173-11.749 5.491-17.875 6.281-5.395.695-11.144-1.457-16.75-2.252-2.573-.365-5.242-.22-7.758-.789-4.027-.912-7.908-2.574-11.962-3.216-1.818-.287-3.864 1.375-5.881 1.72-4.716.806-10.757-.253-13.967 2.312-8.141 6.508-17.584 6.236-26.759 7.688-14.164 2.241-28.361 4.291-42.566 6.265-9.931 1.379-19.879 2.711-29.858 3.645-5.597.522-11.281.033-16.913.293-4.31.199-8.612 1.328-12.893 1.203-6.748-.196-13.468-1.196-20.213-1.672-6.764-.478-13.763.202-20.257-1.33-7.133-1.683-14.071-4.808-20.613-8.227-7.142-3.73-14.194-3.605-21.681-2.143-4.563.892-9.218 1.405-13.856 1.803-4.445.382-8.946.767-13.38.485-7.277-.462-14.662-2.732-21.747-1.949-12.082 1.336-23.973 4.422-35.913 6.917-.421.088-.653 1.701-.748 2.627-.396 3.885-.708 7.778-1.05 11.669 0-36.936-.003-73.871.049-110.807.002-.391.734-1.123 1.125-1.123 262.112-.053 524.221-.052 786.331-.052zm212.5 74.219c-1.252-.87-2.941-1.474-3.664-2.664-1.579-2.603-2.512-5.59-4.017-8.246-.789-1.394-2.335-2.336-3.352-3.63-2.078-2.644-3.689-5.768-6.143-7.969-1.924-1.728-4.817-2.385-7.31-3.452-.199-.086-.879.32-.892.524-.075 1.234-.13 2.488.015 3.713.282 2.399.658 4.79 1.094 7.167l.895 1.284c.113.681-.056 1.423-.187 2.123-.038.202-.357.352-.547.525 2.161.991-2.254 5.441 2.631 5-.079.734-.075 1.49-.264 2.195-.123.46-.523.845-.8 1.264 4.122.865.178 3.31.945 4.831-2.392.575-4.777 1.183-7.183 1.701-.513.111-1.095-.09-1.643-.161-.575-.074-1.148-.165-1.722-.249.26-.177.509-.469.783-.495.253-.025.527.331.803.348.439.026 1.125.065 1.286-.178.484-.734.766-1.603 1.126-2.419-1.008.038-2.019.048-3.023.123-.721.054-1.436.193-2.152.295.361-1.204.585-2.475 1.126-3.591.445-.917 1.268-1.65 1.923-2.466-.845-.341-1.688-.683-2.533-1.02l-.471-.158c.161-.131.315-.27.484-.39.231-.167.472-.319.709-.478-.34-.086-.743-.083-1.01-.272-1.331-.943-2.568-2.03-3.952-2.885-1.152-.712-2.465-1.161-3.695-1.75-.326-.156-.611-.399-.916-.604.277-.157.599-.268.818-.482.228-.223.572-.667.495-.806-1.579-2.811-3.009-5.74-4.905-8.327-1.278-1.745-3.232-2.993-4.875-4.476-.309-.277-.567-.607-.85-.913.451-.301.904-.598 1.352-.903.398-.271.791-.553 1.187-.829-.488-.229-1.094-.346-1.444-.709-1.394-1.441-2.84-2.863-4.023-4.472-2.274-3.088-4.379-6.303-6.588-9.44-.07-.1-.754.1-.754.104.297 2.147.658 4.285.938 6.435.086.66-.145 1.362-.05 2.02.051.346.587.595.739.956.422.998.721 2.047 1.135 3.048.755 1.828-.448 1.878-1.689 1.938-.058.002-.158.26-.153.263.383.239.835.401 1.15.707.653.633 1.233 1.341 1.843 2.019-.572.116-1.146.227-1.714.364-.031.008-.048.346.001.367.495.221 1.005.41 1.512.603l.664.228c-.213.118-.493.389-.629.33-2.023-.886-4.032-1.807-6.035-2.741-.513-.238-.973-.593-1.49-.819-.757-.333-1.543-.599-2.316-.893.476-.647 1.11-1.233 1.388-1.957.339-.882.419-1.875.478-2.828.006-.095-.914-.285-1.414-.362-1.83-.284-3.677-.482-5.488-.857-.335-.07-.533-.807-.795-1.236.352-.184.756-.309 1.044-.564.629-.558 1.198-1.183 1.793-1.78-.596-.347-1.175-.727-1.79-1.032-.771-.381-1.571-.701-2.359-1.047.532-.252 1.11-.44 1.583-.777.387-.275.646-.728.962-1.102-.378-.244-.738-.522-1.137-.725-1.658-.843-3.533-1.423-4.904-2.596-.66-.565-.061-2.421-.609-3.351-.593-1.002-1.868-1.596-2.831-2.386-.242-.199-.487-.437-.63-.709-1.784-3.399-3.54-6.813-5.374-10.185-.044-.082-1.323.353-1.312.417.374 2.073.833 4.131 1.288 6.188.044.198.232.404.197.575-.354 1.746-.206 5.47.305 6.956l.069.327c-2.378.248-5.411 1.499-6.964.484-1.861-1.217-2.395-4.401-3.624-6.668-.977-1.799-2.117-3.51-3.277-5.197-.047-.068-1.536.6-1.505.771.65 3.604 1.52 7.169 2.131 10.777.284 1.682-.108 3.485.23 5.147.235 1.153 1.3 2.113 1.788 3.248.24.56.015 1.32 0 1.99-.587-.277-1.491-.424-1.674-.868-.199-.485.268-1.245.449-1.884.038-.134.184-.311.141-.383-1.765-2.917-3.509-5.849-5.375-8.699-.201-.307-1.349-.406-1.662-.139-.589.502-1.154 1.305-1.259 2.048-.289 2.061-.348 4.153-.454 6.235-.008.143.318.326.516.451.546.345 1.105.668 1.659 1-.442.125-.889.239-1.325.382-.109.035-.283.207-.27.232.316.599.691 1.168.982 1.778.445.936 1.143 1.886 1.181 2.852.063 1.609-.288 3.24-.516 4.854-.062.438-.541.929-.428 1.257.408 1.186 1.403 2.309 1.413 3.461.019 2.166-.483 4.339-.816 6.501-.019.122-.601.327-.693.243-1.352-1.223-2.681-2.473-3.946-3.782-.085-.088.655-.898.548-1.057-.734-1.073-1.785-1.966-2.36-3.104-.667-1.322-.831-2.893-1.443-4.251-.493-1.092-1.392-1.993-2.003-3.041-1.201-2.064-2.291-4.193-3.501-6.251-.641-1.089-1.437-2.085-2.163-3.123-.343.665-.642 1.358-1.042 1.986-.325.508-1.016 1.393-1.128 1.332-1.582-.846-3.137-1.762-4.602-2.797-.754-.532-1.255-1.425-2.014-1.943-.157-.108-.93 1-1.458 1.041-.728.056-1.743-.141-2.193-.634-1.292-1.415-2.224-3.182-3.605-4.482-.405-.382-1.914.175-2.781.587-.7.333-1.197 1.095-1.784 1.666-.261-.542-.398-1.21-.805-1.6-.94-.904-1.96-1.744-3.035-2.481-2.309-1.582-4.516-3.613-7.086-4.377-1.153-.343-3.068 1.936-4.661 2.988-1.106.73-2.265 1.38-3.374 2.104-.666.436-1.256.985-1.928 1.411-.342.216-1.139.311-1.129.393.083.747.257 1.493.49 2.212.161.497.459.949.695 1.423-.94.304-1.871.646-2.826.896-.48.126-1.211-.101-1.452.169-.256.285-.099.974-.058 1.48.044.549.162 1.093.249 1.638-.481-.024-.985-.149-1.435-.041-.374.09-1.008.528-.972.685.636 2.751 1.243 5.519 2.096 8.206.658 2.074 1.653 4.041 2.479 6.063.061.147-.029.357-.049.538-.275-.106-.544-.231-.826-.317-2.783-.843-5.58-1.647-8.337-2.571-.247-.083-.08-1.122-.386-1.365-1.136-.901-2.305-1.854-3.621-2.409-1.252-.528-2.71-.555-4.064-.858-.889-.198-1.755-.497-2.631-.751.255-.164.5-.45.766-.471.86-.064 1.738.047 2.594-.051 2.237-.257 4.478-.527 6.688-.939.448-.084.776-.812 1.16-1.244-.617-.233-1.235-.666-1.853-.665-2.053.004-4.105.167-6.158.252-.092.004-.2-.144-.282-.237-.384-.443-.711-.954-1.158-1.317-.294-.238-.759-.267-1.146-.389.46-.244.895-.574 1.384-.716 1.227-.355 2.504-.548 3.705-.968.492-.173.839-.762 1.252-1.161-.816.018-1.636.084-2.449.041-.988-.052-1.971-.195-2.957-.299.533-.567 1.057-1.143 1.603-1.695.202-.204.678-.417.648-.522-.154-.569-.685-1.551-.623-1.586.866-.499 1.826-.834 2.716-1.299.155-.081.199-.805.117-.843-.414-.188-.884-.317-1.34-.341-2.166-.111-4.334-.181-6.502-.266.588-.438 1.192-.855 1.758-1.322.685-.564 1.357-1.148 1.972-1.785.08-.083-.181-.743-.35-.774-.696-.129-1.421-.175-2.131-.146-1.101.044-2.197.174-3.296.268.748-.369 1.538-.674 2.226-1.132.417-.277 1.036-.996.942-1.163-.45-.793-1.016-1.588-1.724-2.152-1.219-.97-2.572-1.768-3.869-2.638.717-.584 1.458-1.143 2.134-1.77.167-.155.239-.738.164-.781-1.183-.656-2.411-1.23-3.59-1.893-.24-.135-.355-.541-.471-.845-.682-1.807-1.315-3.633-2.057-5.415-.09-.214-1.021-.356-1.076-.259-.489.876-1.044 1.779-1.227 2.741-.145.761.207 1.616.339 2.429l-2.331.032c.104-.779.193-1.561.328-2.334.031-.179.362-.417.322-.482-1.377-2.209-2.783-4.401-4.185-6.596-.773.943-1.497 1.933-2.342 2.807-.398.412-1.071.546-1.535.913l-.372.87c-.458.166-1.326.313-1.438.122-.419-.712-.501-1.615-.89-2.352-.698-1.323-1.526-2.577-2.301-3.859 69.977 0 139.953-.002 209.931.05.423 0 1.214.753 1.215 1.156.061 24.337.054 48.675.055 73.013zm-212.032-46.104c-.551-.945-1.231-1.843-1.608-2.854-.249-.67-.344-1.692.006-2.209.341-.506 1.469-.943 2.015-.749 1.059.38 1.951 1.224 2.912 1.875-.152.192-.273.427-.463.569-.545.406-1.117.775-1.679 1.159.392.24.79.472 1.172.729.153.104.271.262.404.396l-2.692 2.148-.483-.831.416-.233zm44.753 35.887c-1.512.236-1.819.305-2.131.33-1.388.11-2.777.209-4.166.312.166-1.544.33-3.087.494-4.63 1.642 1.127 3.282 2.254 5.803 3.988zm-1.133-8.035c-.752-.797-2.147-1.616-2.271-2.596-.122-.958 1.055-2.079 1.661-3.128.294.259.841.519.84.775-.007 1.615-.136 3.228-.23 4.949zm111.786-1.202l-1.969-1.637c.292-.181.691-.583.859-.503.861.414 1.665.952 2.489 1.447l-1.379.693zm-32.188-23.151c-1.053.459-1.367.726-1.553.654-.682-.261-1.32-.635-1.976-.966.343-.112.698-.343 1.027-.312.576.054 1.136.269 2.502.624zm-16.304 29.652l-1.321-2.041c.241-.131.672-.404.696-.372.385.512.741 1.051 1.041 1.616.053.102-.176.354-.416.797zm-126.947-20.623c.334-.273.587-.639.864-.658.232-.017.736.49.702.562-.239.493-.588.932-.901 1.389l-.665-1.293zm205.811 42.89l-1.329-.647c.445-.119.895-.344 1.334-.328.42.016.83.281 1.244.437l-1.249.538zm-216.89-70.018c.491-.295.727-.554.904-.519.431.086.833.309 1.247.477-.402.251-.784.559-1.22.719-.138.051-.42-.293-.931-.677z" fill="none"/></svg>