<svg xmlns="http://www.w3.org/2000/svg" xmlns:xlink="http://www.w3.org/1999/xlink" width="381" height="381" viewBox="0 0 381 381"><style type="text/css"><![CDATA[
	.st0{fill:url(#Blue_1_);}
	.st1{fill:#10376F;}
	.st2{clip-path:url(#Clip_1_);fill:#FFFFFF;}
	.st3{display:inline;fill:#FF0000;}
	.st4{display:inline;fill:#FFFFFF;}
	.st5{fill:#FF0000;}
	.st6{fill:#FFFFFF;}
	.st7{clip-path:url(#Clip_1_);}
	.st8{display:none;}
]]></style><circle id="Border" class="st6" cx="190.5" cy="190.5" r="190.5"/><radialGradient id="Blue_1_" cx="191.079" cy="65.438" r="167.99" gradientUnits="userSpaceOnUse"><stop offset="0" stop-color="#fff"/><stop offset=".104" stop-color="#F6FAFC"/><stop offset=".273" stop-color="#DEEBF4"/><stop offset=".487" stop-color="#B6D3E8"/><stop offset=".737" stop-color="#7FB1D6"/><stop offset="1" stop-color="#3D89C1"/></radialGradient><circle id="Blue" class="st0" cx="190.5" cy="189.5" r="168"/><defs><circle id="Clip" cx="190.5" cy="190.5" r="168"/></defs><clipPath id="Clip_1_"><use xlink:href="#Clip" overflow="visible"/></clipPath><g class="st7"><path class="st5" d="M20.2 208.5l-5829.7 1846h480l5363.4-1846z"/><path class="st6" d="M33.9 208.5l-5363.4 1846h480l4897-1846z"/><path class="st5" d="M47.5 208.5l-4897 1846h480l4430.6-1846z"/><path class="st6" d="M61.1 208.5l-4430.6 1846h480l3964.2-1846z"/><path class="st5" d="M74.7 208.5l-3964.2 1846h480l3497.8-1846z"/><path class="st6" d="M88.3 208.5l-3497.8 1846h480l3031.5-1846z"/><path class="st5" d="M102 208.5l-3031.5 1846h480l2565.1-1846z"/><path class="st6" d="M115.6 208.5l-2565.1 1846h480l2098.7-1846z"/><path class="st5" d="M129.2 208.5l-2098.7 1846h480l1632.3-1846z"/><path class="st6" d="M142.8 208.5l-1632.3 1846h480l1165.9-1846z"/><path class="st5" d="M156.4 208.5l-1165.9 1846h480l699.6-1846z"/><path class="st6" d="M170.1 208.5l-699.6 1846h480l233.2-1846z"/><path class="st5" d="M183.7 208.5l-233.2 1846h480l-233.2-1846z"/><path class="st6" d="M197.3 208.5l233.2 1846h480l-699.6-1846z"/><path class="st5" d="M210.9 208.5l699.6 1846h480l-1166-1846z"/><path class="st6" d="M224.5 208.5l1166 1846h480l-1632.3-1846z"/><path class="st5" d="M238.2 208.5l1632.3 1846h480l-2098.7-1846z"/><path class="st6" d="M251.8 208.5l2098.7 1846h480l-2565.1-1846z"/><path class="st5" d="M265.4 208.5l2565.1 1846h480l-3031.5-1846z"/><path class="st6" d="M279 208.5l3031.5 1846h480l-3497.9-1846z"/><path class="st5" d="M292.6 208.5l3497.9 1846h480l-3964.2-1846z"/><path class="st6" d="M306.3 208.5l3964.2 1846h480l-4430.6-1846z"/><path class="st5" d="M319.9 208.5l4430.6 1846h480l-4897-1846z"/><path class="st6" d="M333.5 208.5l4897 1846h480l-5363.4-1846z"/><path class="st5" d="M360.7 208.5h-13.6l5363.4 1846h480z"/></g><path class="st2" d="M-6180.5 380.5h13072v2207h-13072z"/><g id="Chicken"><path class="st1" d="M248.8 329.7c-.7 0-1.3-.2-1.9-.5l-2-.9c-1.4-.7-2.7-1.3-3.9-1.5-4.3-.8-8.7-1.2-13.5-1.7h-.2c-2.5-.2-5.6-.5-7.6-3.3-1.1-.1-2.4-.2-3.6-.3-1.8 1.5-3.8 2-5.6 2.4l-1.6.4c-.2.1-.5.1-.7.1-.7 0-1.5-.3-1.9-.9-.6-.8-.7-1.9-.3-2.7l.7-1.4c.5-1.1 1.1-2.1 1.7-3.1.7-1.2 1.8-2.1 2.9-2.6.7-.4 1.5-.7 2.2-.9l-4.7-7.9-.3.1-5.3 1.1c-.8.1-1.6.3-2.3.4l-1.1.2c.3.4.7.8.9 1.3l2.3 3.9 1 1.6c.6 1.1.4 2.4-.5 3.2l-1.2 1c-.5.4-1 .6-1.6.6-.5 0-1.1-.2-1.5-.5l-.8-.6c-.5-.4-1-.8-1.6-1.2l-1.2-.9c-1.1-.8-2.1-1.5-3.1-1.9-2.6-1.1-5.4-2.1-8.1-3.1l-2.8-1c-2.1-.8-3.8-1.3-5.5-1.3-.5 0-1 .1-1.5.2-.7.2-.8.2-.8.3-1.6 1.8-3.6 2.5-5.4 3.2l-1.2.4c-.3.1-.6.2-.9.2-.6 0-1.2-.2-1.7-.7-.7-.7-1-1.7-.6-2.6l.3-.9c.1-.4.3-.7.3-.9.8-3.8 3.1-6.4 6.9-7.8.1 0 .1 0 .2-.1l-.1-.3c-3.6-9.7-6.4-19.5-9.1-29.5 0 0-.1-.5-.2-.6-.8-.2-1.4-.7-1.8-1.1l-.2-.2-2.3-1.8-3.6-2.8c-4.1-3.2-8-5.9-12.6-7.1-2.6-.7-4.7-2.1-6.5-4.4-3.1-3.8-4.7-8.2-5.9-12-3.9-1.7-7.9-3.4-11.8-5.3-2.8-1.3-4.9-2.9-6.6-4.8-3.3-3.7-5.2-8.1-6.8-12.3-2.2.5-4.4.9-6.7.9-.5 0-1.1 0-1.6-.1-1.5-.1-3.7-.5-5.3-2.5-.6-.8-1-1.6-1.2-2.5h-.8c-.9 0-1.7 0-2.5-.1-1.7-.2-3.4-.7-4.8-1.5-1.5-.8-2.4-2.2-2.5-3.8-.1-1.5.5-3.1 1.7-4.2-.2-.1-.4-.2-.5-.3-1.7-.9-2.7-2.5-2.8-4.3-.1-1.7.7-3.3 2-4.5-1.8-.4-3.6-1-5.4-2.3-.6-.5-1-1.2-1-2v-1.2c0-.8.4-1.6 1.1-2l.7-.6c.7-.6 1.6-1.3 2.7-1.7 1.8-.6 3.7-.9 5.2-1h.4l-.7-1c-2.2-3.3-4.4-6.7-6.5-10.2-1-1.7-1.6-3.5-2.1-5.3-.1-.4-.2-.8-.4-1.2-.6-2 0-4.1 1.6-5.3.8-.6 1.7-.9 2.6-.9.7 0 1.4.2 1.9.4-1.6-2.9-3.2-6-4.4-9.3-.7-1.9-1.3-4-1.1-6.4.3-2.7 2.3-4.7 4.9-4.7.6 0 1.2.1 1.7.3.5-.3 1-.6 1.7-.8-1-2.7-2-5.5-2.8-8.2-.5-1.6-.8-3.5-.8-5.8 0-1.4.4-2.7 1.3-3.6.8-.8 1.9-1.2 3-1.2.9 0 1.9.3 2.7.8.4.2.9.6 1.4 1-.3-1.7-.3-3.4 0-4.9.5-2.9 2.7-4.9 5.5-4.9.4 0 .9.1 1.3.2-.5-1.7-1.1-3.6-1.4-5.7-.4-2.4.4-3.8 1.1-4.6 1-1.2 2.5-1.8 4.5-1.8h.9c1.9.2 3.6 1 5.1 2.6 1.3 1.3 2.2 2.4 2.9 3.4 2.9 4.1 4.9 8.5 6.8 12.8l.7 1.5 3.3 7.4c2.3 5.1 4.7 10.5 7.2 15.6 2.8 5.9 6 10.8 9.6 14.8.4.4.7.5 1 .6.4.1.8.1 1.1.2.9.2 1.8.3 2.6.3h1.3l1.9.1c.9 0 1.7-.1 2.3-.2 3.7-.9 7.1-1.4 10.2-1.4.6 0 1.3 0 1.9.1 5.2.3 10.5.7 15.6 1.1l1.6.1c.7.1 1.3.1 1.8.1 1.8 0 3.2-.3 4.5-.9l1.5-.7c1.3-.6 2.5-1.2 3.6-1.8 3.4-2 6.9-4.2 10.2-6.3l1.5-.9c1-.6 2-.9 3.1-.9.5 0 1 .1 1.5.2l.6.1h.4c1.3-.4 2.7-.8 3.7-1.4 1.2-.7 2.5-1.6 3.7-2.4l2.6-1.8c3.4-2.2 5.5-4.7 6.7-7.9 1-2.8 2.1-5.6 3.2-8.2l3.4-8.9c3.1-8.5 8.1-15.2 15-19.9l3.4-2.3c1.6-1 3.3-2.1 4.8-3.2 2.3-1.7 4.8-2.7 7.8-3.2l.6-.1c-1.3-3.1-2.6-6.9-3.4-11-.5-2.8.9-4.3 2.1-5 .4-.2.8-.4 1.3-.4.6 0 1.2.2 1.7.7l2.8 2.6c.3-1.8.7-3.6 1.6-5.4.4-.7 1-1.2 1.8-1.3h.4c.6 0 1.2.2 1.7.7 1.8 1.6 2.9 3.6 3.7 5.5l3.6-6.8c.4-.8 1.3-1.3 2.2-1.3h1c.9 0 1.8.5 2.2 1.3 1.1 2.1 1.2 4.3 1.2 6.2v1.2c.6-.5 1.3-1 2-1.4.4-.2.8-.3 1.2-.3.3 0 .5 0 .8.1.7.2 1.2.7 1.5 1.4 1.1 2.5 1.2 5 1.3 7.4.3.1.5.2.7.2.1 0 .1 0 .2.1.9.1 1.7.7 2.1 1.5 1.4 3.3 2 6.8 1.7 10.3-.2 2.9-.9 6.8-3.8 9.9 2.6 2.3 5.1 5.1 6.4 8.9.1.3.1.5.1.8v1.6c0 .8-.4 1.5-1 2l-.3.3c-.5.5-1.3 1.2-2.4 1.3-.4.1-.9.1-1.3.1-1.4 0-2.7-.4-3.9-1.1.2 2.3 0 4.9-.9 7.4-1.9 5.1-5.4 6.5-7.9 6.8-.5.1-1 .1-1.5.1-1.5 0-3-.2-4.5-.6l-1.2-.4c.5 2.8 1.1 5.7 1.7 8.5.6 2.8.7 5.2.3 7.5l-2.1 10-1.4 6.7c-.1.5-.2 1-.4 1.5-.3.9-.4 1.6-.3 2 .2.7.6 1.5 1 2.3l.5 1c.5 1.2 1.6 3.5.6 6.2-.2.6-.3 1.2-.3 1.9 0 5.2-.6 10.6-1.6 16.5-1.6 8.9-4.4 18-8.4 26.9-1.3 2.9-3.2 5.5-5.7 7.7-3 2.7-6.8 4.9-11.7 6.9-.2 1-.4 2-.7 3l-.9 4.3c-2 10.1-6 18.2-12.2 24.9l-.6.6c-.6.7-1.2 1.3-1.6 1.9-.7 1-1.3 1.9-1.9 3-1 1.6-2.1 3.3-3.3 4.8-.2.3-.5.6-.7 1-1.5 2-3.2 4.3-5.8 5.8 4.5 9.1 8.6 16.1 13.1 22.3 2.2-.8 4.7-1.6 7.3-2.3 1.3-.4 2.7-.5 4.1-.5 2.3 0 4.6.5 6.8 1 .9.2 1.6.9 1.8 1.7l4.2-.4h.4c.7 0 1.3.2 1.7.3l.4.1c.9.2 1.7.8 1.9 1.7l.1.4c.3 1 0 2-.8 2.7l-.3.3c-.4.4-.9.9-1.6 1.2l-5.2 2.4-3.1 1.4c.4.3.8.6 1.2 1l3 3.1 1.5 1.5c.8.8.9 2 .4 3-.8.5-1.5 1.8-3.3 1.8zm-44.1-32.3l-5.9-10.8c-2-.6-3.6-1.9-4.8-4l-.4-.8-5.4-9.6c-.5-.8-1.1-1.6-1.7-2-.8-.6-1.8-1.1-2.9-1.6-.2-.1-.3-.2-.5-.2l-5.5 3c2.2 8.6 4.4 15.5 7.1 21.6 1-.1 1.9-.2 2.8-.3 1.4-.2 2.8-.3 4.2-.3 3.6 0 7.1.8 10.2 2.4 1.4.7 2.1 1.5 2.3 2.5.1.1.3.1.5.1z"/><path class="st6" d="M278.1 69.1c.8 1.6.9 3.3.9 5-.1 3.1-.2 6.2-.4 9.3 1.8-2.5 3-5.6 6-7.3 1.3 3 1 6.1 1.1 9.6.4-.7.8-.9 1.2-.9l1.8.5c1.2 2.9 1.7 6 1.5 9.2-.3 4.1-1.4 7.7-5.3 10 3.4 2.7 6.5 5.6 8 9.8v1.6c-.5.4-1 1.1-1.6 1.1l-.9.1c-1.1 0-2.1-.3-3-1-1.2-.9-2.4-.6-3.8-.8.1.4.1.7.2 1 .4 3 .6 6-.5 8.9-1 2.7-2.8 4.9-5.8 5.2-.4 0-.8.1-1.3.1-1.3 0-2.6-.2-3.8-.5-1.8-.5-3.4-1.5-5-2.3 0 .3-.1.7 0 1.1.8 4.1 1.5 8.2 2.4 12.2.5 2.2.7 4.3.2 6.5-1.1 5.6-2.3 11.1-3.4 16.6-.3 1.6-1.1 3.1-.6 4.7.4 1.2 1 2.3 1.5 3.5.6 1.4 1.1 2.8.6 4.4-.3.9-.4 1.8-.4 2.7 0 5.4-.6 10.7-1.6 16-1.6 9.1-4.5 17.9-8.2 26.3-1.2 2.7-2.9 4.9-5 6.8-3.3 3-7.3 4.9-11.4 6.6-.6.2-.9.6-1 1.2l-1.7 7.8c-1.8 8.9-5.4 17-11.6 23.7-.8.9-1.7 1.8-2.5 2.8-1.8 2.5-3.3 5.3-5.1 7.7-2.2 2.8-4.2 5.9-7.9 7 4.3 9 9 17.7 15 25.7.3.4.5.6.9.6.2 0 .3 0 .6-.1 2.6-.9 5.3-1.8 8-2.5 1.2-.3 2.3-.5 3.5-.5 2.1 0 4.2.4 6.3.9v1.4c-2.3.4-4.6.8-6.8 1.2v.3c1.3-.2 2.6-.4 4-.5 3.2-.3 6.4-.7 9.6-.9h.2c.6 0 1.1.2 1.7.3l.1.4c-.5.4-.8.9-1.4 1.1-2.3 1.1-4.7 2.1-7.1 3.2-2.2 1-4.5 2-6.8 3 2 1.1 4.4.8 6 2.5 1.5 1.6 3 3.1 4.4 4.6-.5.8-.7 1.2-1 1.2-.2 0-.5-.1-1-.3-2.1-.9-4.1-2.1-6.3-2.5-4.5-.8-9.1-1.3-13.7-1.7-2.5-.2-5-.4-6.4-2.9-.1-.2-.4-.3-.7-.3-1.5-.1-2.9-.3-4.4-.3h-.2c-.4 0-1 .1-1.2.3-1.8 1.8-4.1 1.9-6.6 2.6.8-1.6 1.5-3 2.3-4.3.4-.7 1.1-1.4 1.8-1.7 1.6-.7 3.2-1.3 4.9-1.9-2.5-4.2-5-8.4-7.4-12.4-.6.3-1.2.7-1.9.9l-7.6 1.5c-2.3.5-4.7.9-7.1 1.4 1.7 1.5 4.1 1.8 5.3 3.8 1.1 1.9 2.2 3.7 3.3 5.5-.5.4-.8.7-1.2 1-.9-.7-1.6-1.3-2.5-1.9-1.6-1-3-2.3-4.7-3-3.6-1.5-7.3-2.8-11-4.1-2.1-.8-4.2-1.5-6.4-1.5-.7 0-1.3.1-2 .2-.8.2-1.5.3-2.2 1-1.4 1.6-3.5 2.1-5.7 2.9.3-.9.6-1.4.7-2.1.6-3.1 2.5-4.9 5.3-6 .9-.3 1.7-.8 2.5-1.2-.3-.9-.7-1.6-1-2.4-3.6-9.6-6.4-19.4-9.1-29.3-.3-1-.4-2.1-1.8-2.3-.5-.1-.9-.5-1.3-.8l-5.9-4.6c-4.1-3.1-8.3-6.2-13.4-7.6-2.2-.6-3.8-1.9-5.2-3.6-2.7-3.4-4.3-7.3-5.6-11.4-.2-.6-.5-1-1.1-1.2-4-1.7-8-3.5-11.9-5.4-2.2-1-4.2-2.4-5.8-4.2-3.2-3.6-5.1-8-6.7-12.4l-.4-1.2c-2.8.7-5.5 1.3-8.3 1.3-.5 0-.9 0-1.4-.1-1.4-.1-2.7-.5-3.6-1.6-.8-1-.9-2.2-.5-3.5-1.2 0-2.3.1-3.4.1-.7 0-1.5 0-2.2-.1-1.3-.1-2.7-.6-3.9-1.2-1.6-.9-1.7-2.8-.3-4 .9-.7 1.9-1.2 2.9-1.8.4-.2.8-.4 1.1-.5-1.7-.6-3.5-1-5.1-1.9-2-1.1-2-3.5-.1-4.9.6-.4 1.3-.8 2-.9 2.2-.4 4.3-.7 6.3-1-2.3-.5-4.8-1-7.3-1.7-2.3-.6-4.7-.9-6.7-2.4v-1.2c.9-.7 1.8-1.6 2.8-1.9 1.5-.5 3.1-.7 4.6-.9.6-.1 1.2-.1 1.8-.1h3c-.3-.4-.5-.7-.7-1-3-4.7-6.2-9.3-9-14.1-1.1-1.8-1.6-3.9-2.2-5.9-.3-.9-.1-1.9.8-2.6.4-.3.7-.4 1.1-.4.5 0 1 .2 1.6.5.4.2.8.4 1.1.7 1.2.9 2.4 1.8 3.5 2.9 1.9 1.7 3.6 3.5 5.6 5.5-.2-.4-.3-.5-.4-.7-1.6-2.6-3.3-5.2-4.8-7.8-2.5-4.3-5-8.6-6.7-13.3-.6-1.7-1.1-3.4-.9-5.2.2-1.5 1.1-2.4 2.4-2.4.4 0 .8.1 1.2.2.4.1.7.3 1.1.5.5-.7 1.1-1.3 2-1.3.2 0 .4 0 .6.1.9.3 1.7.8 2.7 1.3-.1-.3-.2-.6-.3-.8-1.4-4-2.9-7.9-4.2-12-.5-1.6-.7-3.4-.7-5 0-1.4.7-2.3 1.8-2.3.4 0 .9.1 1.5.5s1.3.8 1.7 1.4c1.7 2 3.4 4.1 5 6.2.9 1.1 1.6 2.3 2.4 3.4 0-.2 0-.4-.1-.6-1.1-3.2-2.3-6.4-3.3-9.6-.6-2-1-4.2-.6-6.4.3-1.8 1.5-2.8 3-2.8.6 0 1.1.1 1.7.5.4.2.9.5 1.3.8 1.3 1.2 2.6 2.5 4.1 4-.2-.5-.3-.8-.4-1.1-.9-2.1-1.8-4.1-2.6-6.2-.7-2.1-1.4-4.2-1.7-6.4-.3-2.2.6-3.5 3.1-3.5h.7c1.4.1 2.6.8 3.5 1.8 1 1 1.9 2 2.7 3.1 3.1 4.3 5.1 9.2 7.3 14 3.5 7.7 6.9 15.4 10.6 23.1 2.7 5.6 5.9 10.8 10 15.4.7.8 1.5 1.2 2.5 1.4 1.3.2 2.7.5 4 .5l3.2.1c1 0 2-.1 2.9-.3 3.2-.8 6.4-1.3 9.6-1.3.6 0 1.2 0 1.8.1 5.7.3 11.4.8 17.1 1.3.7.1 1.3.1 2 .1 1.9 0 3.8-.3 5.6-1.1 1.8-.9 3.6-1.6 5.3-2.6 4-2.4 7.8-4.8 11.7-7.3.6-.4 1.1-.5 1.8-.5.3 0 .6 0 .9.1.4.1.8.1 1.2.1.4 0 .8 0 1.1-.1 1.5-.4 3-.9 4.3-1.6 2.2-1.3 4.3-2.9 6.5-4.3 3.5-2.3 6.2-5.1 7.7-9.1l6.6-17.2c2.8-7.7 7.3-14 14.1-18.7 2.7-1.9 5.6-3.6 8.3-5.6 2-1.5 4.3-2.4 6.7-2.8 1.2-.2 2.5-.4 3.8-.6-.2-.4-.3-.6-.4-.9-1.7-4-3.3-8.2-4.1-12.5-.2-1-.1-1.8 1-2.4 2 1.9 4.1 3.8 6.2 5.8.6-3.3.6-6.5 2.1-9.4 2.9 2.7 3.6 6.4 5 9.5 2.1-3.9 4.1-7.7 6.2-11.5-.1-.1.2-.1.6-.1m-95.1 226.6c1.6-.2 3.2-.2 4.7-.5 1.3-.2 2.6-.3 3.8-.3 3.1 0 6.1.6 9 2.1 1.2.6 1.3.6.6 1.9l-6.8-.4v.3l.5.1 10.6 1.1c1.4.2 2.7.5 4 .8v.1-.1c-2.9-5.3-5.7-10.6-8.6-15.8-.2-.3-.5-.6-.9-.7-1.7-.4-2.8-1.4-3.7-2.9-1.9-3.5-3.9-7-5.9-10.4-.6-1-1.5-2.1-2.4-2.7-1.3-.9-2.9-1.6-4.3-2.3-.2-.1-.4-.1-.6-.1-.1 0-.2 0-.3.1-2.7 1.4-5.3 2.8-8 4.3 2 8.6 4.5 17.1 8.3 25.4m95.1-231.6h-1c-1.8 0-3.5 1-4.4 2.6l-1.5 2.8c-.5-.7-1.2-1.4-1.9-2.1-.9-.9-2.1-1.3-3.4-1.3-.3 0-.6 0-.9.1-1.5.3-2.9 1.2-3.6 2.6-.3.6-.6 1.3-.8 1.9-.9-.7-2-1.1-3.1-1.1-.9 0-1.8.2-2.6.7-1.3.8-4.1 3-3.3 7.6.6 3.1 1.5 6.1 2.4 8.7-2.4.7-4.5 1.7-6.5 3.1-1.5 1.1-3 2.1-4.7 3.2-1.1.7-2.3 1.5-3.5 2.3-7.3 5-12.6 12.1-15.9 21.1-1.1 3-2.3 6-3.4 8.9-1.1 2.7-2.1 5.5-3.2 8.3-1 2.7-2.8 4.8-5.7 6.7l-2.7 1.8c-1.2.8-2.4 1.6-3.6 2.3-.7.4-1.9.8-3 1.1-.7-.2-1.4-.2-2-.2-1.6 0-3 .4-4.4 1.3l-1.5.9c-3.3 2.1-6.7 4.2-10.1 6.3-1 .6-2.2 1.2-3.4 1.7l-1.5.7c-.9.4-2 .6-3.4.6-.5 0-1 0-1.6-.1l-1.6-.1c-5.1-.4-10.4-.8-15.6-1.1l-2.1-.1c-3.4 0-6.9.5-10.8 1.5-.4.1-.9.1-1.7.1-.6 0-1.1 0-1.8-.1-.4 0-.9 0-1.3-.1-.6 0-1.4-.1-2.2-.3l-.8-.1c-3.4-3.9-6.4-8.5-9.1-14.1-2.5-5.1-4.9-10.4-7.2-15.6l-3.3-7.4-.7-1.5c-2-4.4-4.1-9-7.1-13.3-.8-1.2-1.8-2.3-3.2-3.7-1.9-2-4.2-3.1-6.7-3.3h-1.1c-3.4 0-5.3 1.4-6.4 2.6-1 1.2-2.2 3.3-1.7 6.6.2 1 .4 2 .6 2.9-3 .8-5.3 3.3-5.9 6.7l-.2 1.2c-.5-.1-1-.2-1.5-.2-1.8 0-3.5.7-4.8 2-1.3 1.4-2.1 3.3-2 5.4 0 2.5.4 4.6.9 6.5l1.8 5.5h-.1c-3.8 0-6.9 2.9-7.4 6.9-.3 2.9.4 5.4 1.2 7.5.8 2.1 1.6 4 2.6 5.9-.7.2-1.3.6-1.9 1-2.5 1.9-3.4 5-2.5 8l.3 1.1c.5 1.8 1.2 3.9 2.3 5.9 1.6 2.7 3.4 5.4 5.1 8-.7.2-1.4.3-2.2.6-1.5.5-2.7 1.4-3.5 2.1-.2.2-.4.4-.6.5-1.3.9-2.1 2.5-2.1 4.1v1.2c0 1.6.8 3.1 2 4 .9.7 1.9 1.2 2.8 1.6-.4 1-.6 2.1-.5 3.3.1 1.9 1 3.7 2.4 5.1-.6 1.2-.8 2.5-.7 3.8.2 2.4 1.6 4.5 3.8 5.8 1.7 1 3.7 1.6 5.8 1.8.5.1 1.1.1 1.7.1.3.6.7 1.2 1.1 1.6 2.5 3 5.9 3.3 7 3.4l1.8.1c1.8 0 3.5-.2 5.2-.5 1.6 3.8 3.5 7.7 6.5 11.1 1.9 2.2 4.4 4 7.4 5.4 3.6 1.7 7.3 3.4 10.9 4.9 1.3 3.8 3 8 6 11.7 2.2 2.7 4.8 4.4 7.8 5.3 4.2 1.1 7.8 3.7 11.7 6.7 1.2.9 2.4 1.8 3.5 2.8l2.3 1.8.1.1c.3.2.7.6 1.3 1 2.5 9.3 5.1 18.3 8.4 27.3-3.4 1.9-5.6 4.9-6.4 8.8 0 .1-.1.3-.2.5l-.3.9c-.6 1.8-.1 3.9 1.3 5.2.9.9 2.2 1.4 3.4 1.4.6 0 1.2-.1 1.8-.3.4-.1.8-.3 1.1-.4 1.8-.7 4.1-1.5 6-3.3.3-.1.6-.1.9-.1 1.3 0 2.8.5 4.7 1.2l2.8 1c2.8 1 5.4 1.9 8 3 .8.3 1.7 1 2.6 1.6l1.3.9c.4.3.9.7 1.4 1.1.3.2.6.4.8.7.9.7 2 1 3.1 1s2.3-.4 3.2-1.1h.1s0 .1-.1.1c-.9 1.8-.7 3.9.6 5.5 1 1.2 2.4 1.8 3.9 1.8.5 0 .9-.1 1.4-.2l1.5-.4c1.8-.4 3.9-.9 5.8-2.3l1.5.1c2.7 2.8 6.3 3.2 8.7 3.4h.2c4.7.4 9 .9 13.2 1.7.9.2 2.1.7 3.3 1.3.6.3 1.3.6 2 .9h.1c.7.3 1.6.7 2.8.7 3.3 0 4.7-2.5 5.4-3.7 1.1-1.9.8-4.3-.8-5.9l-1.5-1.5-1.5-1.5 4.9-2.2c1.1-.5 1.9-1.3 2.3-1.7l.2-.2c1.5-1.3 2.1-3.4 1.5-5.3l-.1-.3v-.1c-.5-1.8-2-3.1-3.9-3.5-.1 0-.2 0-.3-.1-.5-.1-1.4-.4-2.4-.4h-.6c-.9.1-1.8.2-2.7.2-.7-.8-1.6-1.3-2.6-1.5-2.3-.5-4.8-1-7.4-1-1.7 0-3.3.2-4.8.6-1.9.5-3.9 1.2-5.6 1.7-3.7-5.3-7.2-11.2-10.9-18.5 1.9-1.6 3.3-3.4 4.6-5.1l.7-.9c1.3-1.7 2.4-3.4 3.4-5 .6-1 1.2-2 1.9-2.9.3-.5.8-1 1.4-1.6.2-.2.4-.4.6-.7 6.5-7.1 10.7-15.6 12.9-26.2.3-1.4.6-2.8.9-4.3l.4-1.7c4.6-2 8.2-4.2 11.2-6.8 2.7-2.4 4.9-5.3 6.3-8.6 4-9.1 6.9-18.4 8.6-27.5 1.1-6 1.6-11.5 1.6-16.9 0-.4.1-.8.2-1.1 1.3-3.6-.1-6.6-.7-8.1l-.5-1c-.3-.6-.5-1.2-.7-1.7 0-.2.1-.5.2-.8.1-.5.3-1 .4-1.7l1.4-6.7 2.1-10c.5-2.7.4-5.5-.3-8.6l-1-4.5c.8.1 1.7.2 2.5.2.6 0 1.2 0 1.8-.1 2.7-.3 7.5-1.8 10-8.4.6-1.6.9-3.3 1.1-4.8.5.1.9.1 1.4.1.5 0 1.1 0 1.6-.1 1.9-.3 3.1-1.4 3.8-2l.2-.1c1.2-.9 2-2.4 2-4v-1.6c0-.6-.1-1.1-.3-1.6-1.2-3.4-3.2-6.1-5.3-8.4 2.5-3.7 2.8-7.8 2.9-9.4.3-3.9-.3-7.8-1.9-11.5-.5-1.3-1.6-2.2-2.8-2.7-.1-2.1-.4-4.3-1.4-6.5-.6-1.3-1.6-2.3-3-2.8-.5-.2-1.1-.3-1.6-.3-.3 0-.5 0-.8.1-.2-1.4-.6-3-1.4-4.5-.4-1.5-2.1-2.5-3.9-2.5zm-97.7 208.6c.9-.5 1.8-1 2.7-1.4.7.3 1.4.7 1.9 1.1.3.2.7.6 1 1.2 1.9 3.1 3.7 6.4 5.4 9.5l.4.8c1.3 2.3 3 3.9 5.2 4.8l1.2 2.2c-2.1-.6-4.4-.9-6.7-.9-1.5 0-3 .1-4.5.3l-.9.1c-2.1-5.1-3.9-10.8-5.7-17.7zm23.5 35.8l3.7-.7 2 3.3.4.6c-1.4.8-2.4 1.8-3.1 2.7-.1-.7-.3-1.4-.7-2.1l-1-1.6c-.5-.9-.9-1.6-1.3-2.2z"/></g><g id="Stripes_Original" class="st8"><path class="st3" d="M-1984.5 190.5h174v1846h-174z"/><path class="st4" d="M-1810.5 190.5h174v1846h-174z"/><path class="st3" d="M-1636.5 190.5h174v1846h-174z"/><path class="st4" d="M-1462.5 190.5h174v1846h-174z"/><path class="st3" d="M-1288.5 190.5h174v1846h-174z"/><path class="st4" d="M-1114.5 190.5h174v1846h-174z"/><path class="st3" d="M-940.5 190.5h174v1846h-174z"/><path class="st4" d="M-766.5 190.5h174v1846h-174z"/><path class="st3" d="M-592.5 190.5h174v1846h-174z"/><path class="st4" d="M-418.5 190.5h174v1846h-174z"/><path class="st3" d="M-244.5 190.5h174v1846h-174z"/><path class="st4" d="M-70.5 190.5h174v1846h-174z"/><path class="st3" d="M103.5 190.5h174v1846h-174z"/><path class="st4" d="M277.5 190.5h174v1846h-174z"/><path class="st3" d="M451.5 190.5h174v1846h-174z"/><path class="st4" d="M625.5 190.5h174v1846h-174z"/><path class="st3" d="M799.5 190.5h174v1846h-174z"/><path class="st4" d="M973.5 190.5h174v1846h-174z"/><path class="st3" d="M1147.5 190.5h174v1846h-174z"/><path class="st4" d="M1321.5 190.5h174v1846h-174z"/><path class="st3" d="M1495.5 190.5h174v1846h-174z"/><path class="st4" d="M1669.5 190.5h174v1846h-174z"/><path class="st3" d="M1843.5 190.5h174v1846h-174z"/><path class="st4" d="M2017.5 190.5h174v1846h-174z"/><path class="st3" d="M2191.5 190.5h174v1846h-174z"/></g></svg>