<?xml version="1.0" encoding="utf-8"?>
<!-- Generator: Adobe Illustrator 16.0.0, SVG Export Plug-In . SVG Version: 6.00 Build 0)  -->
<!DOCTYPE svg PUBLIC "-//W3C//DTD SVG 1.1//EN" "http://www.w3.org/Graphics/SVG/1.1/DTD/svg11.dtd">
<svg version="1.1" id="Avatar" xmlns="http://www.w3.org/2000/svg" xmlns:xlink="http://www.w3.org/1999/xlink" x="0px" y="0px"
	 width="305.635px" height="576.116px" viewBox="0.182 -0.058 305.635 576.116"
	 enable-background="new 0.182 -0.058 305.635 576.116" xml:space="preserve">
<g id="Male_Thin">
	<rect id="Hair_Back_1_" x="124.8" y="41.875" width="56.399" height="0.542"/>
	<polygon id="Neck_3_" fill="#DDA37C" points="193.397,88.818 153,128.818 112.603,88.818 134.5,78.875 134.5,57.168 171.5,57.168 
		171.5,78.875 	"/>
	<g id="Shoes">
		<g>
			<path d="M203.553,540.556c-3.805-4.026,2.685-13.281,2.685-13.281l-36.054,4.938v25.458l7.479,5.61v4.027
				c0,0,8.27,7.604,15.031,8.342c21.071,2.302,22.51-5.897,22.51-5.897v-10.932C215.203,558.821,206.045,543.192,203.553,540.556z
				 M102.447,540.556c-2.493,2.637-11.65,18.266-11.65,18.266v10.932c0,0,1.438,8.199,22.509,5.897
				c6.762-0.738,15.031-8.342,15.031-8.342v-4.027l7.479-5.61v-25.458l-36.054-4.938C99.762,527.274,106.25,536.529,102.447,540.556
				z"/>
		</g>
	</g>
	<g id="Stockings">
		<path fill="#CCCCCC" d="M102,400.5c-3.475,9.526,3.293,84.119,4.667,122.5c0.5,13.994-4.758,20.876-4.758,20.876H123.5
			c0,0,4.731-6.703,4-17.376c-0.514-7.506-5.239-15.744-3-27c4.974-25.004,8.806-65.131,9.969-75.242
			C135.927,411.581,153,330.661,153,330.661l-57.824-52.279C95.176,278.382,114.589,365.985,102,400.5z"/>
		<path fill="#CCCCCC" d="M204,400.5c-12.589-34.515,6.824-122.118,6.824-122.118L153,330.661c0,0,17.073,80.92,18.531,93.597
			c1.163,10.111,4.994,50.238,9.969,75.242c2.239,11.256-2.486,19.494-3,27c-0.73,10.673,4,17.376,4,17.376h21.591
			c0,0-5.259-6.882-4.758-20.876C200.707,484.619,207.475,410.026,204,400.5z"/>
	</g>
	<path id="Pants" fill="#353E51" d="M210.824,278.382H95.176c0,0-5.045,94.559-0.863,131.059
		c1.314,11.471,3.596,135.435,3.596,135.435h39.204l4.182-133.247L153,330.661l11.705,80.968l4.182,133.247h39.204
		c0,0,2.282-123.964,3.596-135.435C215.869,372.941,210.824,278.382,210.824,278.382z"/>
	<g id="Tie_and_Shirt_1_">
		<path id="Shirt_1_" fill="#EAEAEA" d="M182,110.692l-29,78.125l-29-78.125l3.75-27.25c0,0,21.916,6.504,25.25,6.5
			c3.375-0.004,25.25-6.5,25.25-6.5L182,110.692z"/>
		<path id="Tie" fill="#E50000" d="M164.297,158.76L153,188.817l-11.297-30.057L151,89.25c0,0,1.75,0,2,0s2,0,2,0L164.297,158.76z"
			/>
	</g>
	<path id="Knot_1_" fill="#FF0000" d="M143.417,86.567l6.146,11.73c0,0,3.25,0,3.438,0s3.438,0,3.438,0l6.146-11.73
		c0,0-10,0-9.583,0S143.417,86.567,143.417,86.567z"/>
	<path id="Jacket_Left" fill="#394259" d="M88.746,305.559h42.494c0,0,17.2,0.191,21.247-26.433
		c0.485-3.191,0.514-90.419,0.514-90.419L125.169,82.894L83.181,99.668c0,0,7.085,10.791,12.875,45.637
		c1.944,11.703,5.701,25.333,4.663,43.314C97.851,238.246,88.746,305.559,88.746,305.559z"/>
	<path id="Jacket_Right" fill="#394259" d="M217.254,305.559h-47.493c0,0-17.201,0.191-21.248-26.433
		c-0.192-1.266-0.002-72.436-0.002-72.436l20.896-86.584l8.935-27.701l-1.978-11.474l46.455,18.756c0,0-7.085,10.781-12.875,45.628
		c-1.944,11.703-5.701,25.329-4.663,43.31C208.148,238.25,217.254,305.559,217.254,305.559z"/>
	<g id="Middle_Jacket_Shadow">
		<defs>
			<path id="Jacket_Left_4_" d="M88.746,305.559h42.494c0,0,17.2,0.191,21.247-26.433c0.485-3.191,0.514-90.419,0.514-90.419
				L125.169,82.894L83.181,99.668c0,0,7.085,10.791,12.875,45.637c1.944,11.703,5.701,25.333,4.663,43.314
				C97.851,238.246,88.746,305.559,88.746,305.559z"/>
		</defs>
		<clipPath id="Jacket_Left_8_">
			<use xlink:href="#Jacket_Left_4_"  overflow="visible"/>
		</clipPath>
		<linearGradient id="SVGID_1_" gradientUnits="userSpaceOnUse" x1="109.6069" y1="242.334" x2="158.5721" y2="242.334">
			<stop  offset="0" style="stop-color:#000000;stop-opacity:0"/>
			<stop  offset="0.7154" style="stop-color:#000000;stop-opacity:0"/>
			<stop  offset="1" style="stop-color:#000000;stop-opacity:0.17"/>
		</linearGradient>
		<rect x="110.317" y="169.333" clip-path="url(#Jacket_Left_8_)" fill="url(#SVGID_1_)" width="46.35" height="146"/>
	</g>
	
		<linearGradient id="Right_Shadow_4_" gradientUnits="userSpaceOnUse" x1="122.7603" y1="233.0044" x2="215.4104" y2="233.0044" gradientTransform="matrix(0.5962 -0.0576 0.0861 0.8916 66.386 41.2922)">
		<stop  offset="0" style="stop-color:#000000;stop-opacity:0"/>
		<stop  offset="0.7945" style="stop-color:#000000;stop-opacity:0"/>
		<stop  offset="1" style="stop-color:#000000;stop-opacity:0.25"/>
	</linearGradient>
	<path id="Right_Shadow" fill="url(#Right_Shadow_4_)" d="M206.068,167.883c-7.671,10.488-35.895,49.468-37.958,58.006
		c-1.957,8.098-1.851,60.718-1.748,79.515c2.041,0.593,3.398,0.596,3.398,0.596h47.493c0,0-9.105-67.527-11.973-117.153
		C204.837,181.151,205.274,174.219,206.068,167.883z"/>
	
		<linearGradient id="Left_Shadow_4_" gradientUnits="userSpaceOnUse" x1="256.708" y1="241.6592" x2="349.3582" y2="241.6592" gradientTransform="matrix(-0.5962 -0.0576 -0.0861 0.8916 320.2175 41.2922)">
		<stop  offset="0" style="stop-color:#000000;stop-opacity:0"/>
		<stop  offset="0.7945" style="stop-color:#000000;stop-opacity:0"/>
		<stop  offset="1" style="stop-color:#000000;stop-opacity:0.25"/>
	</linearGradient>
	<path id="Left_Shadow" fill="url(#Left_Shadow_4_)" d="M99.932,167.885c0.794,6.336,1.231,13.268,0.787,20.962
		C97.851,238.473,88.746,306,88.746,306h42.494c0,0,3.893-0.013,8.409-2.885c0.096-20.45,0.123-69.436-1.76-77.226
		C135.825,217.351,107.605,178.376,99.932,167.885z"/>
	<circle id="Button_1_" fill="#333333" cx="155.583" cy="253" r="2.5"/>
	<circle id="Button" fill="#333333" cx="155.583" cy="218" r="2.5"/>
	<g id="Collar_10_">
		<path id="Collar_13_" fill="#F9F9F9" d="M140.801,104.784L128.653,83.09l5.64-12.148c0,0,5.01,4.874,5.582,5.43
			s10.472,10.189,10.472,10.189L140.801,104.784z"/>
		<path id="Collar_12_" fill="#F9F9F9" d="M165.199,104.784l12.147-21.693l-5.64-12.148c0,0-5.01,4.874-5.582,5.43
			c-0.57,0.556-10.472,10.189-10.472,10.189L165.199,104.784z"/>
	</g>
	<g id="Jacket_Fold">
		<path fill="#424F66" d="M153,188.817c0,0-21.985-40.725-21.75-40.25s-20.933-45.713-20.933-45.713l9.058-6.099l-6.875-3.312
			c0,0,2.75-4.042,4.5-5.5c2.583-2.153,8-5,8-5s2.75-4,3.75-5s3.75-3,3.75-3s-2.375,4-2.25,7c0.25,5.995,3.741,25.025,3.812,25.875
			C134.562,113.754,153,188.817,153,188.817z"/>
		<path fill="#424F66" d="M153,188.817c0,0,21.985-40.725,21.75-40.25s20.933-45.713,20.933-45.713l-9.058-6.099l6.875-3.312
			c0,0-2.75-4.042-4.5-5.5c-2.583-2.153-8-5-8-5s-2.75-4-3.75-5s-3.75-3-3.75-3s2.375,4,2.25,7
			c-0.25,5.995-3.741,25.025-3.812,25.875C171.438,113.754,153,188.817,153,188.817z"/>
	</g>
	<g id="Arm_Left_1_">
		<linearGradient id="Hand_Left_1_" gradientUnits="userSpaceOnUse" x1="85.064" y1="333.6611" x2="85.064" y2="276.7139">
			<stop  offset="0" style="stop-color:#E9A773"/>
			<stop  offset="1" style="stop-color:#F3C591"/>
		</linearGradient>
		<path id="Hand_Left" fill="url(#Hand_Left_1_)" d="M99.247,319.942c-6.434,3.166-11.008-20.309-11.434-13.5
			c-0.356,5.704,0.838,11.965,4.833,15.5c8.76,7.751,2.494,12.632,0.5,11.576c-19.667-10.41-21.333-18.076-22.998-31.774
			c-1.667-13.723,7.271-25.031,16.24-25.031c1.899,0,8.416,6.422,9.257,15.895c0.667,7.5,2.489,12.889,3.333,17.834
			C99.829,315.418,101.055,319.053,99.247,319.942z"/>
		<path id="Cuff_Left" fill="#F9F9F9" d="M68.305,271.609c0.265,10.544,0.496,18.234,0.496,18.234s11.621-3.483,15.134-3.973
			c9.489-1.324,12.806,0.583,12.806,0.583s-0.33-6.731-0.711-14.844H68.305z"/>
		<path id="Jacket_Arm_Left" fill="#394259" d="M97.681,280.942c0,0-3.562-2.25-13.75-0.688c-3.773,0.579-16.25,4.688-16.25,4.688
			s-2.041-74.59-1.125-89.375c2.5-40.375,16.625-95.869,16.625-95.869s9.875,17.119,12.875,36.744
			c2.052,13.426,9.611,16.225,9.611,16.225s-9.876,74.264-9.958,78.282S97.681,280.942,97.681,280.942z"/>
	</g>
	<g id="Arm_Right_1_">
		
			<linearGradient id="Hand_Right_2_" gradientUnits="userSpaceOnUse" x1="-771.6626" y1="333.6631" x2="-771.6626" y2="276.7134" gradientTransform="matrix(-1 0 0 1 -550.7266 0)">
			<stop  offset="0" style="stop-color:#E9A773"/>
			<stop  offset="1" style="stop-color:#F3C591"/>
		</linearGradient>
		<path id="Hand_Right" fill="url(#Hand_Right_2_)" d="M206.754,319.942c6.434,3.166,11.008-20.309,11.434-13.5
			c0.355,5.704-0.838,11.965-4.834,15.5c-8.76,7.751-2.494,12.632-0.5,11.576c19.667-10.41,21.334-18.076,22.998-31.774
			c1.666-13.723-7.271-25.031-16.24-25.031c-1.9,0-8.416,6.422-9.258,15.895c-0.666,7.5-2.488,12.889-3.333,17.834
			C206.171,315.418,204.945,319.053,206.754,319.942z"/>
		<path id="Cuff_Right" fill="#F9F9F9" d="M237.695,271.609c-0.266,10.544-0.496,18.234-0.496,18.234s-11.621-3.483-15.135-3.973
			c-9.488-1.324-12.806,0.583-12.806,0.583s0.33-6.731,0.711-14.844H237.695z"/>
		<path id="Jacket_Arm_Right" fill="#394259" d="M208.319,280.942c0,0,3.562-2.25,13.75-0.688c3.772,0.579,16.25,4.688,16.25,4.688
			s2.04-74.59,1.125-89.375c-2.5-40.375-16.764-95.869-16.764-95.869s-10,17.119-13,36.744c-2.052,13.426-9.348,16.225-9.348,16.225
			s9.876,74.263,9.958,78.282S208.319,280.942,208.319,280.942z"/>
	</g>
	<rect id="Pocket_Square_1_" x="180.014" y="140.366" fill="#F9F9F9" width="21" height="1.852"/>
	<g id="Head">
		<g>
			<linearGradient id="SVGID_2_" gradientUnits="userSpaceOnUse" x1="153.0005" y1="77.9463" x2="153.0005" y2="-0.0581">
				<stop  offset="0" style="stop-color:#E9A773"/>
				<stop  offset="1" style="stop-color:#F3C591"/>
			</linearGradient>
			<path fill="url(#SVGID_2_)" d="M174.295,8.99C168.845,3.4,161.316-0.058,153-0.058S137.155,3.4,131.705,8.99
				S124,22.412,124,30.942s2.231,14.872,3.346,25c0.323,2.935,9.204,16.282,17.846,21c2.059,1.124,6.208,1,7.808,1
				c1.6,0,5.749,0.124,7.808-1c8.643-4.718,17.523-18.065,17.846-21c1.115-10.128,3.347-16.47,3.347-25S179.745,14.58,174.295,8.99z
				"/>
		</g>
	</g>
</g>
<g id="Male_Heavy">
	<rect id="Hair_Back_3_" x="124.8" y="41.875" width="56.399" height="0.542"/>
	<polygon id="Neck_2_" fill="#DDA37C" points="193.397,88.818 153,128.818 112.603,88.818 134.5,78.875 134.5,57.168 171.5,57.168 
		171.5,78.875 	"/>
	<g id="Shoes_2_">
		<g>
			<path d="M235.431,540.556c-5.864-4.026,4.138-13.281,4.138-13.281l-55.569,4.938v25.458l11.526,5.61v4.027
				c0,0,12.746,7.604,23.168,8.342c32.477,2.302,34.694-5.897,34.694-5.897v-10.932
				C253.388,558.821,239.271,543.192,235.431,540.556z M70.569,540.556c-3.843,2.637-17.957,18.266-17.957,18.266v10.932
				c0,0,2.216,8.199,34.693,5.897c10.421-0.738,23.166-8.342,23.166-8.342v-4.027l11.528-5.61v-25.458l-55.57-4.938
				C66.43,527.274,76.431,536.529,70.569,540.556z"/>
		</g>
	</g>
	<g id="Stockings_2_">
		<path fill="#CCCCCC" d="M55.072,400.5c-6.639,9.526,6.293,84.119,8.917,122.5c0.956,13.994-9.091,20.876-9.091,20.876h41.254
			c0,0,9.04-6.703,7.643-17.376c-0.982-7.506-10.011-15.744-5.732-27c9.504-25.004,16.825-65.131,19.047-75.242
			c2.786-12.677,35.408-93.597,35.408-93.597L42.034,278.382C42.034,278.382,79.126,365.985,55.072,400.5z"/>
		<path fill="#CCCCCC" d="M249.967,400.5c-24.055-34.515,13.039-122.118,13.039-122.118l-110.487,52.279
			c0,0,32.623,80.92,35.409,93.597c2.222,10.111,9.542,50.238,19.047,75.242c4.279,11.256-4.75,19.494-5.731,27
			c-1.396,10.673,7.643,17.376,7.643,17.376h41.255c0,0-10.049-6.882-9.092-20.876C243.675,484.619,256.605,410.026,249.967,400.5z"
			/>
	</g>
	<path id="Pants_2_" fill="#353E51" d="M261.218,278.382H44.783c0,0-9.441,94.559-1.615,131.059
		c2.459,11.471,6.729,135.435,6.729,135.435h88.37l2.826-133.247L153,350.661l11.906,60.968l2.825,133.247h88.371
		c0,0,4.271-123.964,6.729-135.435C270.66,372.941,261.218,278.382,261.218,278.382z"/>
	<g id="Tie_and_Shirt_2_">
		<path id="Shirt_3_" fill="#EAEAEA" d="M182,111.692l-29,78.125l-29-78.125l3.75-27.25c0,0,21.916,6.504,25.25,6.5
			c3.375-0.004,25.25-6.5,25.25-6.5L182,111.692z"/>
		<path id="Tie_1_" fill="#E50000" d="M164.297,159.76L153,189.817l-11.297-30.057L151,90.25c0,0,1.75,0,2,0s2,0,2,0L164.297,159.76
			z"/>
	</g>
	<path id="Knot_2_" fill="#FF0000" d="M143.417,86.567l6.146,11.73c0,0,3.25,0,3.438,0s3.438,0,3.438,0l6.146-11.73
		c0,0-10,0-9.583,0S143.417,86.567,143.417,86.567z"/>
	<path id="Jacket_Left_2_" fill="#394259" d="M38.746,305.559h92.494c0,0,17.2,0.191,21.247-26.433c0.485-3.191,0-90.419,0-90.419
		L125.169,82.894L83.181,99.668c0,0-42.915,10.791-37.125,45.637c1.944,11.703-4.299,25.333-5.337,43.314
		C37.851,238.246,38.746,305.559,38.746,305.559z"/>
	<path id="Jacket_Right_2_" fill="#394259" d="M267.254,305.559h-97.493c0,0-17.201,0.191-21.248-26.433
		c-0.192-1.266-0.002-72.436-0.002-72.436l20.715-85.778l9.116-28.507l-1.978-11.474l46.455,18.756c0,0,42.915,10.781,37.125,45.628
		c-1.944,11.703,4.299,25.329,5.337,43.31C268.148,238.25,267.254,305.559,267.254,305.559z"/>
	<g id="Middle_Jacket_Shadow_1_">
		<defs>
			<path id="Jacket_Left_5_" d="M88.746,305.559h42.494c0,0,17.2,0.191,21.247-26.433c0.485-3.191,0.514-90.419,0.514-90.419
				L125.169,82.894L83.181,99.668c0,0,7.085,10.791,12.875,45.637c1.944,11.703,5.701,25.333,4.663,43.314
				C97.851,238.246,88.746,305.559,88.746,305.559z"/>
		</defs>
		<clipPath id="Jacket_Left_9_">
			<use xlink:href="#Jacket_Left_5_"  overflow="visible"/>
		</clipPath>
		<linearGradient id="SVGID_3_" gradientUnits="userSpaceOnUse" x1="109.6069" y1="242.334" x2="158.5721" y2="242.334">
			<stop  offset="0" style="stop-color:#000000;stop-opacity:0"/>
			<stop  offset="0.7154" style="stop-color:#000000;stop-opacity:0"/>
			<stop  offset="1" style="stop-color:#000000;stop-opacity:0.17"/>
		</linearGradient>
		<rect x="110.317" y="169.333" clip-path="url(#Jacket_Left_9_)" fill="url(#SVGID_3_)" width="46.35" height="146"/>
	</g>
	
		<linearGradient id="Right_Shadow_5_" gradientUnits="userSpaceOnUse" x1="121.6992" y1="235.6597" x2="314.3251" y2="235.7009" gradientTransform="matrix(0.5962 -0.0576 0.0861 0.8916 66.386 41.2922)">
		<stop  offset="0" style="stop-color:#000000;stop-opacity:0"/>
		<stop  offset="0.7945" style="stop-color:#000000;stop-opacity:0"/>
		<stop  offset="1" style="stop-color:#000000;stop-opacity:0.25"/>
	</linearGradient>
	<path id="Right_Shadow_2_" fill="url(#Right_Shadow_5_)" d="M206.068,167.883c-7.671,10.488-35.895,49.468-37.958,58.006
		c-1.957,8.098-1.851,60.718-1.748,79.515c2.041,0.593,3.398,0.596,3.398,0.596h97.493c0,0,0.895-67.527-1.973-117.153
		C264.837,181.151,205.274,174.219,206.068,167.883z"/>
	
		<linearGradient id="Left_Shadow_5_" gradientUnits="userSpaceOnUse" x1="255.251" y1="244.3428" x2="448.3022" y2="244.3428" gradientTransform="matrix(-0.5962 -0.0576 -0.0861 0.8916 320.2175 41.2922)">
		<stop  offset="0" style="stop-color:#000000;stop-opacity:0"/>
		<stop  offset="0.7945" style="stop-color:#000000;stop-opacity:0"/>
		<stop  offset="1" style="stop-color:#000000;stop-opacity:0.25"/>
	</linearGradient>
	<path id="Left_Shadow_2_" fill="url(#Left_Shadow_5_)" d="M99.932,167.885c0.794,6.336-58.77,13.268-59.214,20.962
		C37.851,238.473,38.746,306,38.746,306h92.493c0,0,3.893-0.013,8.409-2.885c0.096-20.45,0.123-69.436-1.76-77.226
		C135.825,217.351,107.605,178.376,99.932,167.885z"/>
	<circle id="Button_4_" fill="#333333" cx="155.583" cy="253" r="2.5"/>
	<circle id="Button_5_" fill="#333333" cx="155.583" cy="218" r="2.5"/>
	<g id="Collar_1_">
		<path id="Collar_5_" fill="#F9F9F9" d="M140.801,104.784L128.653,83.09l5.64-12.148c0,0,5.01,4.874,5.582,5.43
			s10.472,10.189,10.472,10.189L140.801,104.784z"/>
		<path id="Collar_2_" fill="#F9F9F9" d="M165.199,104.784l12.147-21.693l-5.64-12.148c0,0-5.01,4.874-5.582,5.43
			c-0.57,0.556-10.472,10.189-10.472,10.189L165.199,104.784z"/>
	</g>
	<g id="Jacket_Fold_2_">
		<path fill="#424F66" d="M153,188.817c0,0-21.985-40.725-21.75-40.25s-20.933-45.713-20.933-45.713l9.058-6.099l-6.875-3.312
			c0,0,2.75-4.042,4.5-5.5c2.583-2.153,8-5,8-5s2.75-4,3.75-5s3.75-3,3.75-3s-2.375,4-2.25,7c0.25,5.995,3.741,25.025,3.812,25.875
			C134.562,113.754,153,188.817,153,188.817z"/>
		<path fill="#424F66" d="M153,188.817c0,0,21.985-40.725,21.75-40.25s20.933-45.713,20.933-45.713l-9.058-6.099l6.875-3.312
			c0,0-2.75-4.042-4.5-5.5c-2.583-2.153-8-5-8-5s-2.75-4-3.75-5s-3.75-3-3.75-3s2.375,4,2.25,7
			c-0.25,5.995-3.741,25.025-3.812,25.875C171.438,113.754,153,188.817,153,188.817z"/>
	</g>
	<g id="Arm_Left_2_">
		
			<linearGradient id="Hand_Left_Fat_Morph_3_" gradientUnits="userSpaceOnUse" x1="-1017.1274" y1="377.7158" x2="-1017.1274" y2="320.7676" gradientTransform="matrix(0.9724 0.2334 -0.2334 0.9724 1085.1282 200.8387)">
			<stop  offset="0" style="stop-color:#E9A773"/>
			<stop  offset="1" style="stop-color:#F3C591"/>
		</linearGradient>
		<path id="Hand_Left_Fat_Morph_1_" fill="url(#Hand_Left_Fat_Morph_3_)" d="M24.907,320.701
			c-6.994,1.576-5.962-22.317-7.966-15.796c-1.677,5.463-1.979,11.83,1.082,16.201c6.709,9.58-0.523,12.864-2.216,11.373
			c-16.693-14.715-16.525-22.559-14.945-36.266c1.583-13.733,12.915-22.643,21.635-20.549c1.848,0.443,6.684,8.209,5.292,17.617
			c-1.104,7.449-0.588,13.113-0.923,18.119C26.53,316.438,26.874,320.258,24.907,320.701z"/>
		<path id="Cuff_Left_Fat_Morph_1_" fill="#F9F9F9" d="M6.104,266.479c-2.203,10.315-3.774,17.847-3.774,17.847
			s12.113-0.674,15.644-0.33c9.535,0.927,12.315,3.556,12.315,3.556s1.25-6.623,2.775-14.6L6.104,266.479z"/>
		<path id="Jacket_Arm_Left_Fat_Morph_1_" fill="#394259" d="M32.49,282.413c0,0-2.939-3.02-13.209-3.878
			c-3.804-0.317-16.896,0.764-16.896,0.764s20.429-113.005,24.77-127.169c11.857-38.676,56.026-52.432,56.026-52.432
			s24.149,33.187,22.486,52.969c-1.139,13.534-46.148,34.293-46.148,34.293s-16.258,42.492-17.275,46.381
			C41.226,237.229,32.49,282.413,32.49,282.413z"/>
	</g>
	<g id="Arm_Right_2_">
		
			<linearGradient id="Hand_Right_Fat_Morph_2_" gradientUnits="userSpaceOnUse" x1="-1234.9385" y1="429.9951" x2="-1234.9385" y2="373.0479" gradientTransform="matrix(-0.9724 0.2334 0.2334 0.9724 -1003.1302 200.8387)">
			<stop  offset="0" style="stop-color:#E9A773"/>
			<stop  offset="1" style="stop-color:#F3C591"/>
		</linearGradient>
		<path id="Hand_Right_Fat_Morph" fill="url(#Hand_Right_Fat_Morph_2_)" d="M281.093,320.701c6.994,1.576,5.962-22.317,7.966-15.796
			c1.677,5.463,1.979,11.83-1.082,16.201c-6.709,9.58,0.523,12.864,2.216,11.373c16.693-14.715,16.525-22.559,14.945-36.266
			c-1.584-13.733-12.915-22.643-21.635-20.549c-1.848,0.443-6.685,8.209-5.292,17.617c1.104,7.449,0.589,13.113,0.923,18.119
			C279.47,316.438,279.126,320.258,281.093,320.701z"/>
		<path id="Cuff_Right_Fat_Morph" fill="#F9F9F9" d="M299.896,266.479c2.203,10.315,3.773,17.847,3.773,17.847
			s-12.112-0.674-15.644-0.33c-9.535,0.927-12.315,3.556-12.315,3.556s-1.25-6.623-2.775-14.6L299.896,266.479z"/>
		<path id="Jacket_Arm_Right_Fat_Morph" fill="#394259" d="M273.51,282.413c0,0,2.939-3.02,13.209-3.878
			c3.805-0.317,16.896,0.764,16.896,0.764s-20.429-113.005-24.77-127.169c-11.857-38.676-56.026-52.432-56.026-52.432
			s-24.149,33.187-22.485,52.969c1.139,13.534,46.147,34.293,46.147,34.293s16.258,42.492,17.275,46.381
			C264.774,237.229,273.51,282.413,273.51,282.413z"/>
	</g>
	<rect id="Pocket_Square_2_" x="199.014" y="140.366" fill="#F9F9F9" width="21" height="1.852"/>
	<g id="Head_4_">
		<g>
			<linearGradient id="SVGID_4_" gradientUnits="userSpaceOnUse" x1="153.0962" y1="77.9438" x2="153.0962" y2="-0.0581">
				<stop  offset="0" style="stop-color:#E9A773"/>
				<stop  offset="1" style="stop-color:#F3C591"/>
			</linearGradient>
			<path fill="url(#SVGID_4_)" d="M174.969,8.99C169.38,3.4,162-0.058,153-0.058c-8.53,0-16.251,3.458-21.841,9.048
				s-7.902,13.422-7.902,21.952s2.443,14.808,2.432,25c-0.022,19,8.561,21.996,18.304,22c10.156,0.004,7.367,0,9.008,0
				c2,0-1.036,0.004,9.12,0c9.743-0.004,17.438-3,17.416-22c-0.012-10.192,3.399-16.47,3.399-25S180.559,14.58,174.969,8.99z"/>
		</g>
	</g>
</g>
<g id="Female_Thin">
	<rect id="Hair_Back" x="124.8" y="41.875" width="56.399" height="56.823"/>
	<polygon id="Neck_1_" fill="#DDA37C" points="193.397,88.818 153,128.818 112.603,88.818 134.5,78.875 134.5,57.168 171.5,57.168 
		171.5,78.875 	"/>
	<g id="Shoes_1_">
		<g>
			<path d="M203.553,547.556c-2.071-5.137-4.314-20.281-4.314-20.281l-21.055,0.938l1,18.458l1.48,16.61l3,11.027
				c0,0,2.254,0.757,9.03,1.342c9.806,0.847,13.14-2.817,13.14-2.817l1.369-14.012C207.203,558.821,205.207,551.657,203.553,547.556
				z M102.446,547.556c-1.654,4.102-3.65,11.266-3.65,11.266l1.37,14.012c0,0,3.334,3.664,13.14,2.817
				c6.776-0.585,9.03-1.342,9.03-1.342l3-11.027l1.479-16.61l1-18.458l-21.054-0.938
				C106.762,527.274,104.519,542.419,102.446,547.556z"/>
		</g>
	</g>
	<g id="Stockings_1_">
		<path fill="#CCCCCC" d="M102,400.5c-3.475,9.526,3.293,84.119,4.667,122.5c0.5,13.994-4.758,30.876-4.758,30.876l21.591-1
			c0,0,4.731-15.703,4-26.376c-0.514-7.506-5.239-15.744-3-27c4.974-25.004,8.806-65.131,9.969-75.242
			C135.927,411.581,153,330.661,153,330.661l-57.824-52.279C95.176,278.382,114.589,365.985,102,400.5z"/>
		<path fill="#CCCCCC" d="M204,400.5c-12.589-34.515,6.824-122.118,6.824-122.118L153,330.661c0,0,17.073,80.92,18.531,93.597
			c1.163,10.111,4.994,50.238,9.969,75.242c2.239,11.256-2.486,19.494-3,27c-0.73,10.673,4,26.376,4,26.376l21.591,1
			c0,0-5.259-16.882-4.758-30.876C200.707,484.619,207.475,410.026,204,400.5z"/>
	</g>
	<path id="Pants_1_" fill="#353E51" d="M210.824,278.382H95.176c0,0,1.54,81.606,0.137,114.047c-0.23,5.318-0.404,6.57-0.404,6.57
		H153v-2.869V324.58v71.551V399h58.091c0,0-0.876-1.807-0.404-6.57C213.89,360.089,210.824,278.382,210.824,278.382z"/>
	<g id="Tie_and_Shirt">
		<path id="Shirt_2_" fill="#EAEAEA" d="M182,110.692l-29,78.125l-29-78.125l3.75-27.25c0,0,8.931,36.5,25.25,36.5
			c16.407,0,25.25-36.5,25.25-36.5L182,110.692z"/>
		<path id="Tie_2_" fill="#E50000" d="M164.297,196.092L153,198.817l-11.297-2.725l9.297-6.3c0,0,1.75,0,2,0s2,0,2,0
			L164.297,196.092z"/>
	</g>
	<path id="Knot" fill="#FF0000" d="M132.603,79.737l-1.714,0.777c0,0,4.105,19.782,22.111,19.782s22.111-19.782,22.111-19.782
		l-1.715-0.778c0,0-3.99,18.83-20.396,18.83C137.031,98.567,132.603,79.737,132.603,79.737z"/>
	<path id="Jacket_Left_1_" fill="#394259" d="M88.746,305.559h42.494c0,0,17.2,0.191,21.247-26.433
		c0.485-3.191,0.514-90.419,0.514-90.419L125.169,82.894L83.181,99.668c0,0,7.085,10.791,12.875,45.637
		c1.944,11.703,7.701,25.333,6.663,43.314C99.851,238.246,88.746,305.559,88.746,305.559z"/>
	<path id="Jacket_Right_1_" fill="#394259" d="M217.254,305.559h-47.493c0,0-17.201,0.191-21.248-26.433
		c-0.192-1.266-0.002-71.436-0.002-71.436l20.864-87.438l8.967-27.847l-1.978-11.474l46.455,18.756c0,0-7.085,10.781-12.875,45.628
		c-1.944,11.703-7.701,25.329-6.663,43.31C206.148,238.25,217.254,305.559,217.254,305.559z"/>
	<g id="Middle_Jacket_Shadow_2_">
		<defs>
			<path id="Jacket_Left_6_" d="M88.746,305.559h42.494c0,0,17.2,0.191,21.247-26.433c0.485-3.191,0.514-90.419,0.514-90.419
				L125.169,82.894L83.181,99.668c0,0,7.085,10.791,12.875,45.637c1.944,11.703,5.701,25.333,4.663,43.314
				C97.851,238.246,88.746,305.559,88.746,305.559z"/>
		</defs>
		<clipPath id="Jacket_Left_10_">
			<use xlink:href="#Jacket_Left_6_"  overflow="visible"/>
		</clipPath>
		<linearGradient id="SVGID_5_" gradientUnits="userSpaceOnUse" x1="109.6069" y1="242.334" x2="158.5721" y2="242.334">
			<stop  offset="0" style="stop-color:#000000;stop-opacity:0"/>
			<stop  offset="0.7154" style="stop-color:#000000;stop-opacity:0"/>
			<stop  offset="1" style="stop-color:#000000;stop-opacity:0.17"/>
		</linearGradient>
		<rect x="110.317" y="169.333" clip-path="url(#Jacket_Left_10_)" fill="url(#SVGID_5_)" width="46.35" height="146"/>
	</g>
	
		<linearGradient id="Right_Shadow_6_" gradientUnits="userSpaceOnUse" x1="129.2358" y1="233.4233" x2="221.8871" y2="233.4233" gradientTransform="matrix(0.5962 -0.0576 0.0861 0.8916 66.386 41.2922)">
		<stop  offset="0" style="stop-color:#000000;stop-opacity:0"/>
		<stop  offset="0.7945" style="stop-color:#000000;stop-opacity:0"/>
		<stop  offset="1" style="stop-color:#000000;stop-opacity:0.25"/>
	</linearGradient>
	<path id="Right_Shadow_1_" fill="url(#Right_Shadow_6_)" d="M209.966,167.884c-7.671,10.488-35.895,49.468-37.958,58.006
		c-1.957,8.098-1.851,60.718-1.748,79.515c2.041,0.593,3.398,0.596,3.398,0.596h47.493c0,0-9.105-67.527-11.973-117.153
		C208.734,181.152,209.172,174.22,209.966,167.884z"/>
	
		<linearGradient id="Left_Shadow_6_" gradientUnits="userSpaceOnUse" x1="256.708" y1="241.6592" x2="349.3582" y2="241.6592" gradientTransform="matrix(-0.5962 -0.0576 -0.0861 0.8916 320.2175 41.2922)">
		<stop  offset="0" style="stop-color:#000000;stop-opacity:0"/>
		<stop  offset="0.7945" style="stop-color:#000000;stop-opacity:0"/>
		<stop  offset="1" style="stop-color:#000000;stop-opacity:0.25"/>
	</linearGradient>
	<path id="Left_Shadow_1_" fill="url(#Left_Shadow_6_)" d="M99.932,167.885c0.794,6.336,1.231,13.268,0.787,20.962
		C97.851,238.473,88.746,306,88.746,306h42.494c0,0,3.893-0.013,8.409-2.885c0.096-20.45,0.123-69.436-1.76-77.226
		C135.825,217.351,107.605,178.376,99.932,167.885z"/>
	<circle id="Button_3_" fill="#333333" cx="155.583" cy="253" r="2.5"/>
	<circle id="Button_2_" fill="#333333" cx="155.583" cy="218" r="2.5"/>
	<g id="Collar">
		<path id="Collar_4_" fill="#F9F9F9" d="M129.855,89.425l-1.203-2.148l0.559-1.203c0,0,0.496,0.482,0.552,0.538
			c0.057,0.055,1.037,1.009,1.037,1.009L129.855,89.425z"/>
		<path id="Collar_3_" fill="#F9F9F9" d="M176.144,89.425l1.203-2.148l-0.559-1.203c0,0-0.496,0.483-0.553,0.538
			c-0.057,0.055-1.037,1.009-1.037,1.009L176.144,89.425z"/>
	</g>
	<g id="Jacket_Fold_1_">
		<path fill="#424F66" d="M153,188.817c0,0-21.985-40.725-21.75-40.25s-28.933-40.713-28.933-40.713l17.058-11.099L103.5,97.442
			c0,0,11.75-8.042,13.5-9.5c2.583-2.153,8-5,8-5s1.179-0.567,2.658-1.296c1.269-0.625,2.535-0.816,2.535-0.816s0,0,0.057,1.112
			c0.306,5.993,3.741,25.025,3.812,25.875C134.562,113.754,153,188.817,153,188.817z"/>
		<path fill="#424F66" d="M153,188.817c0,0,21.987-40.725,21.75-40.25c-0.234,0.475,28.934-40.713,28.934-40.713l-17.059-11.099
			l15.875,0.688c0,0-11.75-8.042-13.5-9.5c-2.582-2.153-8-5-8-5s-1.178-0.567-2.658-1.296c-1.268-0.625-2.535-0.816-2.535-0.816
			s0,0-0.057,1.112c-0.305,5.993-3.74,25.025-3.812,25.875C171.438,113.754,153,188.817,153,188.817z"/>
	</g>
	<g id="Arm_Left">
		
			<linearGradient id="Hand_Left_Female_Morph_1_" gradientUnits="userSpaceOnUse" x1="85.064" y1="323.1562" x2="85.064" y2="277.2188">
			<stop  offset="0" style="stop-color:#E9A773"/>
			<stop  offset="1" style="stop-color:#F3C591"/>
		</linearGradient>
		<path id="Hand_Left_Female_Morph" fill="url(#Hand_Left_Female_Morph_1_)" d="M96.505,312.09c-5.19,2.554-8.88-16.383-9.223-10.89
			c-0.288,4.601,0.676,9.651,3.899,12.503c7.066,6.253,2.012,10.189,0.403,9.338c-15.865-8.397-17.209-14.581-18.552-25.631
			c-1.345-11.07,5.866-20.192,13.101-20.192c1.532,0,6.789,5.18,7.468,12.822c0.538,6.05,2.008,10.397,2.688,14.387
			C96.975,308.44,97.964,311.372,96.505,312.09z"/>
		<path id="Cuff_Left_1_" fill="#F9F9F9" d="M70.305,271.609c0.265,10.544-0.504,18.234-0.504,18.234s10.621-3.483,14.134-3.973
			c9.489-1.324,11.806,0.583,11.806,0.583s-1.33-6.731-1.711-14.844H70.305z"/>
		<path id="Jacket_Arm_Left_1_" fill="#394259" d="M96.681,280.942c0,0-2.562-2.25-12.75-0.688
			c-3.773,0.579-15.25,4.688-15.25,4.688s4.959-99.59,5.875-114.375c2.5-40.375,8.625-70.869,8.625-70.869
			s9.875,17.119,12.875,36.744c2.052,13.426,9.611,16.225,9.611,16.225s-8.876,53.264-8.958,57.282S96.681,280.942,96.681,280.942z"
			/>
	</g>
	<g id="Arm_Right">
		
			<linearGradient id="Hand_Right_3_" gradientUnits="userSpaceOnUse" x1="-771.6626" y1="323.1572" x2="-771.6626" y2="277.2183" gradientTransform="matrix(-1 0 0 1 -550.7266 0)">
			<stop  offset="0" style="stop-color:#E9A773"/>
			<stop  offset="1" style="stop-color:#F3C591"/>
		</linearGradient>
		<path id="Hand_Right_1_" fill="url(#Hand_Right_3_)" d="M209.496,312.09c5.189,2.554,8.879-16.383,9.223-10.89
			c0.287,4.601-0.676,9.651-3.899,12.503c-7.066,6.253-2.012,10.189-0.403,9.338c15.865-8.397,17.21-14.581,18.552-25.631
			c1.345-11.07-5.865-20.192-13.101-20.192c-1.533,0-6.789,5.18-7.468,12.822c-0.537,6.05-2.007,10.397-2.688,14.387
			C209.025,308.44,208.037,311.372,209.496,312.09z"/>
		<path id="Cuff_Right_1_" fill="#F9F9F9" d="M235.695,271.609c-0.266,10.544,0.504,18.234,0.504,18.234s-10.621-3.483-14.135-3.973
			c-9.488-1.324-11.806,0.583-11.806,0.583s1.33-6.731,1.711-14.844H235.695z"/>
		<path id="Jacket_Arm_Right_1_" fill="#394259" d="M209.319,280.942c0,0,2.562-2.25,12.75-0.688
			c3.772,0.579,15.25,4.688,15.25,4.688s-4.96-79.59-5.875-94.375c-2.5-40.375-8.764-90.869-8.764-90.869s-10,17.119-13,36.744
			c-2.052,13.426-9.348,16.225-9.348,16.225s8.876,53.263,8.958,57.282S209.319,280.942,209.319,280.942z"/>
	</g>
	<rect id="Pocket_Square" x="190.514" y="141.292" fill="#F9F9F9" width="0" height="0"/>
	<g id="Head_2_">
		<g>
			<linearGradient id="SVGID_6_" gradientUnits="userSpaceOnUse" x1="153.0005" y1="77.9463" x2="153.0005" y2="-0.0581">
				<stop  offset="0" style="stop-color:#E9A773"/>
				<stop  offset="1" style="stop-color:#F3C591"/>
			</linearGradient>
			<path fill="url(#SVGID_6_)" d="M174.295,8.99C168.845,3.4,161.316-0.058,153-0.058S137.155,3.4,131.705,8.99
				S124,22.412,124,30.942s2.231,14.872,3.346,25c0.323,2.935,9.204,16.282,17.846,21c2.059,1.124,6.208,1,7.808,1
				c1.6,0,5.749,0.124,7.808-1c8.643-4.718,17.523-18.065,17.846-21c1.115-10.128,3.347-16.47,3.347-25S179.745,14.58,174.295,8.99z
				"/>
		</g>
	</g>
</g>
<g id="Female_Heavy">
	<rect id="Hair_Back_2_" x="124.8" y="41.875" width="56.399" height="56.823"/>
	<polygon id="Neck_4_" fill="#DDA37C" points="193.397,88.818 153,128.818 112.603,88.818 134.5,78.875 134.5,57.168 171.5,57.168 
		171.5,78.875 	"/>
	<g id="Shoes_3_">
		<g>
			<path d="M249.112,547.556c-3.958-5.137-8.244-20.281-8.244-20.281l-40.229,0.938l1.91,18.458l2.829,16.61l5.732,11.027
				c0,0,4.307,0.757,17.254,1.342c18.736,0.847,25.106-2.817,25.106-2.817l2.616-14.012
				C256.087,558.821,252.273,551.657,249.112,547.556z M55.925,547.556c-3.161,4.102-6.975,11.266-6.975,11.266l2.618,14.012
				c0,0,6.371,3.664,25.106,2.817c12.948-0.585,17.254-1.342,17.254-1.342l5.732-11.027l2.827-16.61l1.911-18.458l-40.228-0.938
				C64.17,527.274,59.884,542.419,55.925,547.556z"/>
		</g>
	</g>
	<g id="Stockings_3_">
		<path fill="#CCCCCC" d="M55.072,400.5c-6.639,9.526,6.293,84.119,8.917,122.5c0.956,13.994-9.091,30.876-9.091,30.876l41.254-1
			c0,0,9.04-15.703,7.643-26.376c-0.982-7.506-10.011-15.744-5.732-27c9.504-25.004,16.825-65.131,19.047-75.242
			c2.786-12.677,35.408-93.597,35.408-93.597L42.034,278.382C42.034,278.382,79.126,365.985,55.072,400.5z"/>
		<path fill="#CCCCCC" d="M249.967,400.5c-24.055-34.515,13.039-122.118,13.039-122.118l-110.487,52.279
			c0,0,32.623,80.92,35.409,93.597c2.222,10.111,9.542,50.238,19.047,75.242c4.279,11.256-4.75,19.494-5.731,27
			c-1.396,10.673,7.643,26.376,7.643,26.376l41.255,1c0,0-10.049-16.882-9.092-30.876
			C243.675,484.619,256.605,410.026,249.967,400.5z"/>
	</g>
	<path id="Pants_Female" fill="#353E51" d="M263.006,278.382H42.034c0,0,2.942,81.606,0.262,114.047
		c-0.439,5.318-0.772,6.57-0.772,6.57h110.996v-2.869V324.58v71.551V399h110.997c0,0-1.674-1.807-0.772-6.57
		C268.863,360.089,263.006,278.382,263.006,278.382z"/>
	<g id="Tie_and_Shirt_3_">
		<path id="Shirt_4_" fill="#EAEAEA" d="M182,110.692l-29,78.125l-29-78.125l3.75-27.25c0,0,8.931,36.5,25.25,36.5
			c16.407,0,25.25-36.5,25.25-36.5L182,110.692z"/>
		<path id="Tie_3_" fill="#E50000" d="M164.297,196.092L153,198.817l-11.297-2.725l9.297-6.3c0,0,1.75,0,2,0s2,0,2,0
			L164.297,196.092z"/>
	</g>
	<path id="Knot_3_" fill="#FF0000" d="M132.603,79.737l-1.714,0.777c0,0,4.105,19.782,22.111,19.782s22.111-19.782,22.111-19.782
		l-1.715-0.778c0,0-3.99,18.83-20.396,18.83C137.031,98.567,132.603,79.737,132.603,79.737z"/>
	<path id="Jacket_Left_3_" fill="#394259" d="M38.746,305.559h92.494c0,0,17.2,0.191,21.247-26.433c0.485-3.191,0-90.419,0-90.419
		L125.169,82.894L83.181,99.668c0,0-42.915,10.791-37.125,45.637c1.944,11.703-4.299,25.333-5.337,43.314
		C37.851,238.246,38.746,305.559,38.746,305.559z"/>
	<path id="Jacket_Right_3_" fill="#394259" d="M267.254,305.559h-97.493c0,0-17.201,0.191-21.248-26.433
		c-0.192-1.266-0.002-72.436-0.002-72.436l20.715-85.778l9.116-28.507l-1.978-11.474l46.455,18.756c0,0,42.915,10.781,37.125,45.628
		c-1.944,11.703,4.299,25.329,5.337,43.31C268.148,238.25,267.254,305.559,267.254,305.559z"/>
	<g id="Middle_Jacket_Shadow_3_">
		<defs>
			<path id="Jacket_Left_7_" d="M88.746,305.559h42.494c0,0,17.2,0.191,21.247-26.433c0.485-3.191,0.514-90.419,0.514-90.419
				L125.169,82.894L83.181,99.668c0,0,7.085,10.791,12.875,45.637c1.944,11.703,5.701,25.333,4.663,43.314
				C97.851,238.246,88.746,305.559,88.746,305.559z"/>
		</defs>
		<clipPath id="Jacket_Left_11_">
			<use xlink:href="#Jacket_Left_7_"  overflow="visible"/>
		</clipPath>
		<linearGradient id="SVGID_7_" gradientUnits="userSpaceOnUse" x1="109.6069" y1="242.334" x2="158.5721" y2="242.334">
			<stop  offset="0" style="stop-color:#000000;stop-opacity:0"/>
			<stop  offset="0.7154" style="stop-color:#000000;stop-opacity:0"/>
			<stop  offset="1" style="stop-color:#000000;stop-opacity:0.17"/>
		</linearGradient>
		<rect x="110.317" y="169.333" clip-path="url(#Jacket_Left_11_)" fill="url(#SVGID_7_)" width="46.35" height="146"/>
	</g>
	
		<linearGradient id="Right_Shadow_7_" gradientUnits="userSpaceOnUse" x1="121.6855" y1="235.688" x2="314.3366" y2="235.688" gradientTransform="matrix(0.5962 -0.0576 0.0861 0.8916 66.386 41.2922)">
		<stop  offset="0" style="stop-color:#000000;stop-opacity:0"/>
		<stop  offset="0.7945" style="stop-color:#000000;stop-opacity:0"/>
		<stop  offset="1" style="stop-color:#000000;stop-opacity:0.25"/>
	</linearGradient>
	<path id="Right_Shadow_3_" fill="url(#Right_Shadow_7_)" d="M206.068,167.883c-7.671,10.488-35.895,49.468-37.958,58.006
		c-1.957,8.098-1.851,60.718-1.748,79.515c2.041,0.593,3.398,0.596,3.398,0.596h97.493c0,0,0.895-67.527-1.973-117.153
		C264.837,181.151,205.274,174.219,206.068,167.883z"/>
	
		<linearGradient id="Left_Shadow_7_" gradientUnits="userSpaceOnUse" x1="255.251" y1="244.3428" x2="448.3022" y2="244.3428" gradientTransform="matrix(-0.5962 -0.0576 -0.0861 0.8916 320.2175 41.2922)">
		<stop  offset="0" style="stop-color:#000000;stop-opacity:0"/>
		<stop  offset="0.7945" style="stop-color:#000000;stop-opacity:0"/>
		<stop  offset="1" style="stop-color:#000000;stop-opacity:0.25"/>
	</linearGradient>
	<path id="Left_Shadow_3_" fill="url(#Left_Shadow_7_)" d="M99.932,167.885c0.794,6.336-58.77,13.268-59.214,20.962
		C37.851,238.473,38.746,306,38.746,306h92.493c0,0,3.893-0.013,8.409-2.885c0.096-20.45,0.123-69.436-1.76-77.226
		C135.825,217.351,107.605,178.376,99.932,167.885z"/>
	<circle id="Button_7_" fill="#333333" cx="155.583" cy="253" r="2.5"/>
	<circle id="Button_6_" fill="#333333" cx="155.583" cy="218" r="2.5"/>
	<g id="Collar_6_">
		<path id="Collar_8_" fill="#F9F9F9" d="M129.855,89.425l-1.203-2.148l0.559-1.203c0,0,0.496,0.482,0.552,0.538
			c0.057,0.055,1.037,1.009,1.037,1.009L129.855,89.425z"/>
		<path id="Collar_7_" fill="#F9F9F9" d="M176.144,89.425l1.203-2.148l-0.559-1.203c0,0-0.496,0.483-0.553,0.538
			c-0.057,0.055-1.037,1.009-1.037,1.009L176.144,89.425z"/>
	</g>
	<g id="Jacket_Fold_3_">
		<path fill="#424F66" d="M153,188.817c0,0-21.985-40.725-21.75-40.25s-28.933-40.713-28.933-40.713l17.058-11.099L103.5,97.442
			c0,0,11.75-8.042,13.5-9.5c2.583-2.153,8-5,8-5s1.179-0.567,2.658-1.296c1.269-0.625,2.535-0.816,2.535-0.816s0,0,0.057,1.112
			c0.306,5.993,3.741,25.025,3.812,25.875C134.562,113.754,153,188.817,153,188.817z"/>
		<path fill="#424F66" d="M153,188.817c0,0,21.987-40.725,21.75-40.25c-0.234,0.475,28.934-40.713,28.934-40.713l-17.059-11.099
			l15.875,0.688c0,0-11.75-8.042-13.5-9.5c-2.582-2.153-8-5-8-5s-1.178-0.567-2.658-1.296c-1.268-0.625-2.535-0.816-2.535-0.816
			s0,0-0.057,1.112c-0.305,5.993-3.74,25.025-3.812,25.875C171.438,113.754,153,188.817,153,188.817z"/>
	</g>
	<g id="Arm_Left_3_">
		
			<linearGradient id="Hand_Left_Fat_Morph_4_" gradientUnits="userSpaceOnUse" x1="-1017.1274" y1="377.7158" x2="-1017.1274" y2="320.7676" gradientTransform="matrix(0.9724 0.2334 -0.2334 0.9724 1085.1282 200.8387)">
			<stop  offset="0" style="stop-color:#E9A773"/>
			<stop  offset="1" style="stop-color:#F3C591"/>
		</linearGradient>
		<path id="Hand_Left_Fat_Morph_2_" fill="url(#Hand_Left_Fat_Morph_4_)" d="M24.907,320.701
			c-6.994,1.576-5.962-22.317-7.966-15.796c-1.677,5.463-1.979,11.83,1.082,16.201c6.709,9.58-0.523,12.864-2.216,11.373
			c-16.693-14.715-16.525-22.559-14.945-36.266c1.583-13.733,12.915-22.643,21.635-20.549c1.848,0.443,6.684,8.209,5.292,17.617
			c-1.104,7.449-0.588,13.113-0.923,18.119C26.53,316.438,26.874,320.258,24.907,320.701z"/>
		<path id="Cuff_Left_Fat_Morph_2_" fill="#F9F9F9" d="M6.104,266.479c-2.203,10.315-3.774,17.847-3.774,17.847
			s12.113-0.674,15.644-0.33c9.535,0.927,12.315,3.556,12.315,3.556s1.25-6.623,2.775-14.6L6.104,266.479z"/>
		<path id="Jacket_Arm_Left_Fat_Morph_2_" fill="#394259" d="M32.49,282.413c0,0-2.939-3.02-13.209-3.878
			c-3.804-0.317-16.896,0.764-16.896,0.764s20.429-113.005,24.77-127.169c11.857-38.676,56.026-52.432,56.026-52.432
			s24.149,33.187,22.486,52.969c-1.139,13.534-46.148,34.293-46.148,34.293s-16.258,42.492-17.275,46.381
			C41.226,237.229,32.49,282.413,32.49,282.413z"/>
	</g>
	<g id="Arm_Right_3_">
		
			<linearGradient id="Hand_Right_Fat_Morph_3_" gradientUnits="userSpaceOnUse" x1="-1234.9385" y1="429.9951" x2="-1234.9385" y2="373.0479" gradientTransform="matrix(-0.9724 0.2334 0.2334 0.9724 -1003.1302 200.8387)">
			<stop  offset="0" style="stop-color:#E9A773"/>
			<stop  offset="1" style="stop-color:#F3C591"/>
		</linearGradient>
		<path id="Hand_Right_Fat_Morph_1_" fill="url(#Hand_Right_Fat_Morph_3_)" d="M281.093,320.701
			c6.994,1.576,5.962-22.317,7.966-15.796c1.677,5.463,1.979,11.83-1.082,16.201c-6.709,9.58,0.523,12.864,2.216,11.373
			c16.693-14.715,16.525-22.559,14.945-36.266c-1.584-13.733-12.915-22.643-21.635-20.549c-1.848,0.443-6.685,8.209-5.292,17.617
			c1.104,7.449,0.589,13.113,0.923,18.119C279.47,316.438,279.126,320.258,281.093,320.701z"/>
		<path id="Cuff_Right_Fat_Morph_1_" fill="#F9F9F9" d="M299.896,266.479c2.203,10.315,3.773,17.847,3.773,17.847
			s-12.112-0.674-15.644-0.33c-9.535,0.927-12.315,3.556-12.315,3.556s-1.25-6.623-2.775-14.6L299.896,266.479z"/>
		<path id="Jacket_Arm_Right_Fat_Morph_1_" fill="#394259" d="M273.51,282.413c0,0,2.939-3.02,13.209-3.878
			c3.805-0.317,16.896,0.764,16.896,0.764s-20.429-113.005-24.77-127.169c-11.857-38.676-56.026-52.432-56.026-52.432
			s-24.149,33.187-22.485,52.969c1.139,13.534,46.147,34.293,46.147,34.293s16.258,42.492,17.275,46.381
			C264.774,237.229,273.51,282.413,273.51,282.413z"/>
	</g>
	<rect id="Pocket_Square_3_" x="209.514" y="141.292" fill="#F9F9F9" width="0" height="0"/>
	<g id="Head_5_">
		<g>
			<linearGradient id="SVGID_8_" gradientUnits="userSpaceOnUse" x1="153.0962" y1="77.9438" x2="153.0962" y2="-0.0581">
				<stop  offset="0" style="stop-color:#E9A773"/>
				<stop  offset="1" style="stop-color:#F3C591"/>
			</linearGradient>
			<path fill="url(#SVGID_8_)" d="M174.969,8.99C169.38,3.4,162-0.058,153-0.058c-8.53,0-16.251,3.458-21.841,9.048
				s-7.902,13.422-7.902,21.952s2.443,14.808,2.432,25c-0.022,19,8.561,21.996,18.304,22c10.156,0.004,7.367,0,9.008,0
				c2,0-1.036,0.004,9.12,0c9.743-0.004,17.438-3,17.416-22c-0.012-10.192,3.399-16.47,3.399-25S180.559,14.58,174.969,8.99z"/>
		</g>
	</g>
</g>
<g id="Hair_Male_Normal">
	<path id="Hair_3_" d="M153.182-0.058c-4.296,0-8.398,0.856-12.125,2.415c-3.727,1.559-7.08,3.821-9.877,6.633
		c-5.53,5.56-7.86,14.002-8.147,21.056c-0.287,7.053,1.47,12.716,1.47,12.716l1.87,1.256l1.869,1.257c0,0,0.57-5.827,1.154-11.782
		c0.583-5.955,1.179-12.039,1.229-12.551c-0.033,0.335,2.474-0.533,3.066-0.846c0.591-0.312,4.499-2.672,7.266-5.321
		c0.882-0.844,2.876,1.068,6.429,3.016c0.862,0.473,1.816,0.947,2.868,1.385c3.687,1.534,8.578,2.615,14.948,1.568
		c2.937-0.482,6.586-1.417,10.178-2.969c0.04-0.018,0.902,9.935,1.573,16.052c0.669,6.118,1.252,11.448,1.252,11.448l1.87-1.257
		l1.87-1.256c0,0,1.304-5.664,1.017-12.716c-0.287-7.054-2.166-15.497-7.695-21.056c-2.799-2.812-6.15-5.074-9.878-6.633
		c-3.727-1.559-7.828-2.415-12.125-2.415"/>
</g>
<g id="Hair_Male_Bald">
	<path id="Hair_Bald_Morph_1_" d="M153.182-0.058c-4.296,0-8.398,0.856-12.125,2.415c-3.727,1.559-7.08,3.821-9.877,6.633
		c-5.53,5.56-7.86,14.002-8.147,21.056c-0.287,7.053,1.47,12.716,1.47,12.716l1.87,1.256l1.869,1.257c0,0-0.251-5.775,0.009-11.782
		c0-5.947-0.05-5.434,0-5.947c-0.033,0.335-10.037-3.045,2.93-18.557c0.425-0.508,5.057-4.09,9.877-6.633
		c0.595-0.57,6.417-2.279,12.219-2.359c4.873-0.067,9.651,1.336,12.11,2.359c3.687,1.534,5.734,1.8,9.878,6.633
		c1.965,2.292,11.41,14.095,2.486,18.556c0.041-0.018,0,0,0,6.282c0.44,6.418,0.452,11.448,0.452,11.448l1.87-1.257l1.87-1.256
		c0,0,1.304-5.664,1.017-12.716c-0.287-7.054-2.166-15.497-7.695-21.056c-2.799-2.812-6.15-5.074-9.878-6.633
		c-6.839-1.973-7.828-2.415-12.125-2.415"/>
</g>
<g id="Hair_Male_Bald_Final">
	<path d="M181.354,19.875h-0.036c0.608,3.01-0.047,5.911-3.567,7.671c0.041-0.018,0,0,0,6.282c0.44,6.418,0.452,11.448,0.452,11.448
		l1.87-1.257l1.87-1.256c0,0,1.304-5.664,1.017-12.716C182.827,26.81,182.354,23.283,181.354,19.875z"/>
	<path d="M124.836,19.875L124.836,19.875c-1.104,3.408-1.672,6.935-1.804,10.171c-0.287,7.053,1.47,12.716,1.47,12.716l1.87,1.256
		l1.869,1.257c0,0-0.251-5.775,0.009-11.782c0-5.947-0.05-5.434,0-5.947C128.227,27.781,123.317,26.185,124.836,19.875z"/>
</g>
<g id="Hair_Female_Normal_1_">
	<path id="Hair_1_" d="M153.182-0.058c-4.296,0-8.398,0.856-12.125,2.415c-3.727,1.559-7.08,3.821-9.877,6.633
		c-5.53,5.56-7.86,14.002-8.147,21.056c-0.287,7.053-3.53,62.716-3.53,62.716l3.87,5.256l4.869,7.257c0,0,0.57-65.827,1.154-71.782
		c0.583-5.955,1.179-12.039,1.229-12.551c-0.033,0.335,2.474-0.533,3.066-0.846c0.591-0.312,4.499-2.672,7.266-5.321
		c0.882-0.844,2.876,1.068,6.429,3.016c0.862,0.473,1.816,0.947,2.868,1.385c3.687,1.534,8.578,2.615,14.948,1.568
		c2.937-0.482,6.586-1.417,10.178-2.969c0.04-0.018,0.902,9.935,1.573,16.052c0.669,6.118,1.252,71.448,1.252,71.448l4.427-7.256
		l2.87-5.257c0,0-2.253-55.664-2.54-62.716c-0.287-7.054-2.166-15.497-7.695-21.056c-2.799-2.812-6.15-5.074-9.878-6.633
		c-3.727-1.559-7.828-2.415-12.125-2.415"/>
</g>
</svg>
