<svg xmlns="http://www.w3.org/2000/svg" xmlns:xlink="http://www.w3.org/1999/xlink" viewBox="66.32 -0.058 173.36 576.117" enable-background="new 66.32 -0.058 173.36 576.117"><g><path d="M124.8 41.875h56.399v56.823h-56.399z"/><path fill="#DDA37C" d="M193.397 88.818l-40.397 40-40.397-40 21.897-9.943v-21.707h37v21.707z"/><path d="M203.553 547.556c-2.071-5.137-4.313-20.281-4.313-20.281l-21.055.938 1 18.459 1.479 16.609 3 11.027s2.254.758 9.03 1.342c9.806.848 13.14-2.816 13.14-2.816l1.369-14.012s-1.996-7.164-3.65-11.266zm-101.107 0c-1.654 4.102-3.65 11.266-3.65 11.266l1.37 14.012s3.334 3.664 13.14 2.818c6.776-.586 9.03-1.344 9.03-1.344l3-11.025 1.479-16.611 1-18.457-21.054-.938c.001-.002-2.242 15.142-4.315 20.279z"/><g fill="#ccc"><path d="M102 400.5c-3.475 9.527 3.293 84.119 4.667 122.5.5 13.994-4.758 30.877-4.758 30.877l21.591-1s4.731-15.703 4-26.377c-.514-7.506-5.239-15.744-3-27 4.974-25.004 8.806-65.131 9.969-75.242 1.458-12.676 18.531-93.596 18.531-93.596l-57.824-52.28s19.413 87.603 6.824 122.118zM204 400.5c-12.589-34.515 6.824-122.118 6.824-122.118l-57.824 52.28s17.073 80.92 18.531 93.596c1.163 10.111 4.993 50.238 9.969 75.242 2.239 11.256-2.485 19.494-3 27-.729 10.674 4 26.377 4 26.377l21.591 1s-5.259-16.883-4.758-30.877c1.374-38.381 8.143-112.973 4.667-122.5z"/></g><path fill="#353E51" d="M210.824 278.382h-115.648s1.54 81.606.137 114.047c-.23 5.318-.404 6.57-.404 6.57h58.091v-74.419 71.551 2.869h58.091s-.876-1.807-.404-6.569c3.203-32.342.137-114.049.137-114.049z"/><g><path fill="#EAEAEA" d="M182 110.692l-29 78.125-29-78.125 3.75-27.25s8.931 36.5 25.25 36.5c16.407 0 25.25-36.5 25.25-36.5l3.75 27.25z"/><path fill="#E50000" d="M164.297 196.092l-11.297 2.725-11.297-2.725 9.297-6.3h4l9.297 6.3z"/></g><path fill="#f00" d="M132.603 79.737l-.857.389-.857.389s1.026 4.945 4.303 9.891 8.805 9.891 17.808 9.891 14.53-4.945 17.808-9.891c3.276-4.945 4.303-9.891 4.303-9.891l-.857-.389-.857-.389s-.997 4.708-4.045 9.415c-3.049 4.708-8.147 9.415-16.351 9.415-7.984 0-13.083-4.707-16.187-9.414-3.104-4.709-4.211-9.416-4.211-9.416z"/><path fill="#394259" d="M88.746 305.559h42.494s17.2.19 21.247-26.433c.485-3.191.514-90.419.514-90.419l-27.832-105.813-41.988 16.774s7.085 10.791 12.875 45.637c1.944 11.703 7.701 25.333 6.663 43.314-2.868 49.627-13.973 116.94-13.973 116.94z"/><path fill="#394259" d="M217.254 305.559h-47.493s-17.201.19-21.248-26.433c-.192-1.266-.002-71.436-.002-71.436l20.864-87.438 8.967-27.847-1.978-11.474 46.455 18.756s-7.086 10.781-12.875 45.628c-1.944 11.703-7.701 25.329-6.663 43.31 2.866 49.625 13.973 116.934 13.973 116.934z"/><g><defs><path id="a" d="M88.746 305.559h42.494s17.2.19 21.247-26.433c.485-3.191.514-90.419.514-90.419l-27.832-105.813-41.988 16.774s7.085 10.791 12.875 45.637c1.944 11.703 5.701 25.333 4.663 43.314-2.868 49.627-11.973 116.94-11.973 116.94z"/></defs><clipPath id="b"><use xlink:href="#a" overflow="visible"/></clipPath><linearGradient id="c" gradientUnits="userSpaceOnUse" x1="-84.393" y1="438.783" x2="-35.428" y2="438.783" gradientTransform="matrix(1 0 0 -1 194 681.116)"><stop offset="0" stop-opacity="0"/><stop offset=".715" stop-opacity="0"/><stop offset="1" stop-opacity=".17"/></linearGradient><path clip-path="url(#b)" fill="url(#c)" d="M110.317 169.333h46.35v146h-46.35z"/></g><linearGradient id="d" gradientUnits="userSpaceOnUse" x1="19.037" y1="419.353" x2="111.689" y2="419.353" gradientTransform="matrix(.596 -.058 -.086 -.892 188.29 616.96)"><stop offset="0" stop-opacity="0"/><stop offset=".794" stop-opacity="0"/><stop offset="1" stop-opacity=".25"/></linearGradient><path fill="url(#d)" d="M209.966 167.884c-7.671 10.488-35.895 49.468-37.958 58.006-1.957 8.098-1.851 60.718-1.748 79.516 2.041.592 3.398.596 3.398.596h47.493s-9.105-67.527-11.974-117.153c-.444-7.697-.005-14.629.789-20.965z"/><linearGradient id="e" gradientUnits="userSpaceOnUse" x1="-360.941" y1="443.901" x2="-268.291" y2="443.901" gradientTransform="matrix(-.596 -.058 .086 -.892 -107.052 616.96)"><stop offset="0" stop-opacity="0"/><stop offset=".794" stop-opacity="0"/><stop offset="1" stop-opacity=".25"/></linearGradient><path fill="url(#e)" d="M99.932 167.885c.794 6.336 1.231 13.268.787 20.962-2.868 49.626-11.973 117.153-11.973 117.153h42.494s3.893-.013 8.409-2.885c.096-20.45.123-69.436-1.76-77.226-2.064-8.538-30.284-47.513-37.957-58.004z"/><circle fill="#333" cx="155.583" cy="253" r="2.5"/><circle fill="#333" cx="155.583" cy="218" r="2.5"/><g fill="#F9F9F9"><path d="M129.855 89.425l-1.203-2.148.559-1.203.552.538 1.037 1.009-.945 1.804z"/><path d="M176.144 89.425l1.203-2.148-.559-1.203-.553.538-1.037 1.009.946 1.804z"/></g><g fill="#424F66"><path d="M153 188.817s-21.985-40.725-21.75-40.25l-28.933-40.713 17.058-11.099-15.875.687s11.75-8.042 13.5-9.5c2.583-2.153 8-5 8-5s1.179-.567 2.658-1.296c1.269-.625 2.535-.816 2.535-.816l.057 1.112c.306 5.993 3.741 25.025 3.812 25.875.5 5.937 18.938 81 18.938 81zM153 188.817s21.987-40.725 21.75-40.25c-.233.475 28.935-40.713 28.935-40.713l-17.06-11.099 15.875.688s-11.75-8.042-13.5-9.5c-2.582-2.153-8-5-8-5s-1.178-.567-2.658-1.296c-1.268-.625-2.534-.816-2.534-.816l-.058 1.112c-.306 5.993-3.74 25.025-3.812 25.875-.5 5.936-18.938 80.999-18.938 80.999z"/></g><g><linearGradient id="f" gradientUnits="userSpaceOnUse" x1="-108.936" y1="357.96" x2="-108.936" y2="403.898" gradientTransform="matrix(1 0 0 -1 194 681.116)"><stop offset="0" stop-color="#E9A773"/><stop offset="1" stop-color="#F3C591"/></linearGradient><path fill="url(#f)" d="M96.505 312.089c-5.19 2.555-8.88-16.383-9.223-10.889-.288 4.6.676 9.65 3.899 12.502 7.066 6.254 2.012 10.189.403 9.338-15.865-8.396-17.209-14.58-18.552-25.631-1.345-11.07 5.866-20.192 13.101-20.192 1.532 0 6.789 5.18 7.468 12.823.538 6.049 2.008 10.396 2.688 14.387.686 4.013 1.675 6.946.216 7.662z"/><path fill="#F9F9F9" d="M70.305 271.609c.265 10.544-.504 18.234-.504 18.234s10.621-3.483 14.134-3.973c9.489-1.324 11.806.583 11.806.583s-1.33-6.731-1.711-14.844h-23.725z"/><path fill="#394259" d="M96.681 280.942s-2.562-2.25-12.75-.688c-3.773.579-15.25 4.688-15.25 4.688s4.959-99.59 5.875-114.375c2.5-40.375 8.625-70.869 8.625-70.869s9.875 17.119 12.875 36.744c2.052 13.426 9.611 16.225 9.611 16.225s-8.876 53.264-8.958 57.282c-.082 4.018-.028 70.993-.028 70.993z"/></g><g><linearGradient id="g" gradientUnits="userSpaceOnUse" x1="-1271.028" y1="357.96" x2="-1271.028" y2="403.899" gradientTransform="matrix(-1 0 0 -1 -1050.092 681.116)"><stop offset="0" stop-color="#E9A773"/><stop offset="1" stop-color="#F3C591"/></linearGradient><path fill="url(#g)" d="M209.496 312.089c5.188 2.555 8.879-16.383 9.223-10.889.287 4.6-.676 9.65-3.899 12.502-7.065 6.254-2.012 10.189-.402 9.338 15.865-8.396 17.21-14.58 18.552-25.631 1.345-11.07-5.864-20.192-13.101-20.192-1.533 0-6.789 5.18-7.469 12.823-.537 6.049-2.006 10.396-2.688 14.387-.688 4.013-1.675 6.946-.216 7.662z"/><path fill="#F9F9F9" d="M235.694 271.609c-.266 10.544.505 18.234.505 18.234s-10.621-3.483-14.136-3.973c-9.487-1.324-11.806.583-11.806.583s1.33-6.731 1.711-14.844h23.726z"/><path fill="#394259" d="M209.319 280.942s2.562-2.25 12.75-.688c3.771.579 15.25 4.688 15.25 4.688s-4.961-79.59-5.875-94.375c-2.5-40.375-8.764-90.869-8.764-90.869s-10 17.119-13 36.744c-2.053 13.426-9.349 16.225-9.349 16.225s8.876 53.263 8.958 57.282c.083 4.019.03 70.993.03 70.993z"/></g><path fill="#F9F9F9" d="M190.515 141.292z"/><g><linearGradient id="h" gradientUnits="userSpaceOnUse" x1="-40.999" y1="603.169" x2="-40.999" y2="681.173" gradientTransform="matrix(1 0 0 -1 194 681.116)"><stop offset="0" stop-color="#E9A773"/><stop offset="1" stop-color="#F3C591"/></linearGradient><path fill="url(#h)" d="M174.295 8.99c-5.45-5.59-12.98-9.048-21.295-9.048-8.316 0-15.845 3.458-21.295 9.048-5.45 5.59-7.705 13.422-7.705 21.952 0 8.53 2.231 14.872 3.346 25 .323 2.935 9.204 16.282 17.846 21 2.059 1.124 6.208 1 7.808 1 1.601 0 5.749.124 7.808-1 8.644-4.718 17.523-18.065 17.846-21 1.115-10.128 3.348-16.47 3.348-25-.001-8.53-2.257-16.362-7.707-21.952z"/></g></g><path d="M153.182-.058c-4.296 0-8.398.856-12.125 2.415s-7.08 3.821-9.877 6.633c-5.53 5.56-7.86 14.002-8.147 21.056-.287 7.053-3.53 62.716-3.53 62.716l3.87 5.256 4.869 7.257s.57-65.827 1.154-71.782l1.229-12.551c-.033.335 2.474-.533 3.066-.846.591-.312 4.499-2.672 7.266-5.321.882-.844 2.876 1.068 6.429 3.016.862.473 1.816.947 2.868 1.385 3.687 1.534 8.578 2.615 14.948 1.568 2.938-.482 6.586-1.417 10.178-2.969.04-.018.902 9.935 1.573 16.052.669 6.118 1.252 71.448 1.252 71.448l4.427-7.256 2.87-5.257s-2.253-55.664-2.54-62.716c-.287-7.054-2.166-15.497-7.695-21.056-2.799-2.812-6.149-5.074-9.877-6.633s-7.828-2.415-12.125-2.415"/></svg>