<svg xmlns="http://www.w3.org/2000/svg" xmlns:xlink="http://www.w3.org/1999/xlink" viewBox="66.32 -0.058 173.36 576.117" enable-background="new 66.32 -0.058 173.36 576.117"><g><path d="M124.8 41.875h56.399v.542h-56.399z"/><path fill="#B0B0B0" d="M193.397 88.818l-40.397 40-40.397-40 21.897-9.943v-21.707h37v21.707z"/><path d="M203.553 540.556c-3.805-4.025 2.685-13.281 2.685-13.281l-36.053 4.938v25.459l7.479 5.609v4.027s8.27 7.604 15.031 8.342c21.07 2.303 22.51-5.896 22.51-5.896v-10.932c-.002 0-9.16-15.629-11.652-18.266zm-101.106 0c-2.493 2.637-11.65 18.266-11.65 18.266v10.932s1.438 8.199 22.509 5.898c6.762-.738 15.031-8.344 15.031-8.344v-4.025l7.479-5.611v-25.457l-36.054-4.938c0-.002 6.488 9.252 2.685 13.279z"/><g fill="#ccc"><path d="M102 400.5c-3.475 9.527 3.293 84.119 4.667 122.5.5 13.994-4.758 20.877-4.758 20.877h21.591s4.731-6.703 4-17.377c-.514-7.506-5.239-15.744-3-27 4.974-25.004 8.806-65.131 9.969-75.242 1.458-12.676 18.531-93.596 18.531-93.596l-57.824-52.28s19.413 87.603 6.824 122.118zM204 400.5c-12.589-34.515 6.824-122.118 6.824-122.118l-57.824 52.28s17.073 80.92 18.531 93.596c1.163 10.111 4.993 50.238 9.969 75.242 2.239 11.256-2.485 19.494-3 27-.729 10.674 4 17.377 4 17.377h21.591s-5.259-6.883-4.758-20.877c1.374-38.381 8.143-112.973 4.667-122.5z"/></g><path fill="#3D3D3D" d="M210.824 278.382h-115.648s-5.045 94.559-.863 131.059c1.314 11.471 3.596 135.436 3.596 135.436h39.204l4.182-133.248 11.705-80.967 11.705 80.967 4.183 133.248h39.203s2.282-123.965 3.596-135.436c4.182-36.5-.863-131.059-.863-131.059z"/><g><path fill="#EAEAEA" d="M182 110.692l-29 78.125-29-78.125 3.75-27.25s21.916 6.504 25.25 6.5c3.375-.004 25.25-6.5 25.25-6.5l3.75 27.25z"/><path fill="#454545" d="M164.297 158.76l-11.297 30.057-11.297-30.057 9.297-69.51h4l9.297 69.51z"/></g><path fill="#4D4D4D" d="M143.417 86.567l6.146 11.73h6.876l6.146-11.73h-19.168z"/><path fill="#424242" d="M88.746 305.559h42.494s17.2.19 21.247-26.433c.485-3.191.514-90.419.514-90.419l-27.832-105.813-41.988 16.774s7.085 10.791 12.875 45.637c1.944 11.703 5.701 25.333 4.663 43.314-2.868 49.627-11.973 116.94-11.973 116.94z"/><path fill="#424242" d="M217.254 305.559h-47.493s-17.201.19-21.248-26.433c-.192-1.266-.002-72.436-.002-72.436l20.896-86.584 8.935-27.701-1.978-11.474 46.455 18.756s-7.086 10.781-12.875 45.628c-1.944 11.703-5.701 25.329-4.663 43.31 2.866 49.625 11.973 116.934 11.973 116.934z"/><g><defs><path id="a" d="M88.746 305.559h42.494s17.2.19 21.247-26.433c.485-3.191.514-90.419.514-90.419l-27.832-105.813-41.988 16.774s7.085 10.791 12.875 45.637c1.944 11.703 5.701 25.333 4.663 43.314-2.868 49.627-11.973 116.94-11.973 116.94z"/></defs><clipPath id="b"><use xlink:href="#a" overflow="visible"/></clipPath><linearGradient id="male-c" gradientUnits="userSpaceOnUse" x1="-84.393" y1="438.783" x2="-35.428" y2="438.783" gradientTransform="matrix(1 0 0 -1 194 681.116)"><stop offset="0" stop-opacity="0"/><stop offset=".715" stop-opacity="0"/><stop offset="1" stop-opacity=".17"/></linearGradient><path clip-path="url(#male-b)" fill="url(#male-c)" d="M110.317 169.333h46.35v146h-46.35z"/></g><linearGradient id="male-d" gradientUnits="userSpaceOnUse" x1="12.563" y1="419.773" x2="105.21" y2="419.773" gradientTransform="matrix(.596 -.058 -.086 -.892 188.29 616.96)"><stop offset="0" stop-opacity="0"/><stop offset=".794" stop-opacity="0"/><stop offset="1" stop-opacity=".25"/></linearGradient><path fill="url(#male-d)" d="M206.067 167.883c-7.67 10.488-35.895 49.468-37.957 58.006-1.957 8.098-1.852 60.718-1.748 79.515 2.041.594 3.397.596 3.397.596h47.493s-9.105-67.526-11.973-117.152c-.442-7.697-.005-14.629.788-20.965z"/><linearGradient id="male-e" gradientUnits="userSpaceOnUse" x1="-360.941" y1="443.901" x2="-268.291" y2="443.901" gradientTransform="matrix(-.596 -.058 .086 -.892 -107.052 616.96)"><stop offset="0" stop-opacity="0"/><stop offset=".794" stop-opacity="0"/><stop offset="1" stop-opacity=".25"/></linearGradient><path fill="url(#male-e)" d="M99.932 167.885c.794 6.336 1.231 13.268.787 20.962-2.868 49.626-11.973 117.153-11.973 117.153h42.494s3.893-.013 8.409-2.885c.096-20.45.123-69.436-1.76-77.226-2.064-8.538-30.284-47.513-37.957-58.004z"/><circle fill="#333" cx="155.583" cy="253" r="2.5"/><circle fill="#333" cx="155.583" cy="218" r="2.5"/><g fill="#F9F9F9"><path d="M140.801 104.784l-12.148-21.694 5.64-12.148 5.582 5.43c.572.556 10.472 10.189 10.472 10.189l-9.546 18.223z"/><path d="M165.199 104.784l12.147-21.693-5.641-12.148-5.582 5.43c-.57.556-10.473 10.189-10.473 10.189l9.549 18.222z"/></g><g fill="#4E4E4E"><path d="M153 188.817s-21.985-40.725-21.75-40.25l-20.933-45.713 9.058-6.099-6.875-3.312s2.75-4.042 4.5-5.5c2.583-2.153 8-5 8-5s2.75-4 3.75-5l3.75-3s-2.375 4-2.25 7c.25 5.995 3.741 25.025 3.812 25.875.5 5.936 18.938 80.999 18.938 80.999zM153 188.817s21.985-40.725 21.75-40.25l20.933-45.713-9.058-6.099 6.875-3.312s-2.75-4.042-4.5-5.5c-2.583-2.153-8-5-8-5s-2.75-4-3.75-5l-3.75-3s2.375 4 2.25 7c-.25 5.995-3.741 25.025-3.812 25.875-.5 5.936-18.938 80.999-18.938 80.999z"/></g><g><linearGradient id="male-f" gradientUnits="userSpaceOnUse" x1="-108.937" y1="347.456" x2="-108.937" y2="404.403" gradientTransform="matrix(1 0 0 -1 194 681.116)"><stop offset="0" stop-color="#B5B5B5"/><stop offset="1" stop-color="#CDCDCD"/></linearGradient><path fill="url(#male-f)" d="M99.247 319.942c-6.434 3.166-11.008-20.31-11.434-13.5-.356 5.704.838 11.966 4.833 15.5 8.76 7.751 2.494 12.632.5 11.576-19.667-10.41-21.333-18.076-22.998-31.774-1.667-13.723 7.271-25.031 16.24-25.031 1.899 0 8.416 6.422 9.257 15.895.667 7.5 2.489 12.89 3.333 17.834.851 4.975 2.077 8.61.269 9.5z"/><path fill="#F9F9F9" d="M68.305 271.609c.265 10.544.496 18.234.496 18.234s11.621-3.483 15.134-3.973c9.489-1.324 12.806.583 12.806.583s-.33-6.731-.711-14.844h-27.725z"/><path fill="#424242" d="M97.681 280.942s-3.562-2.25-13.75-.688c-3.773.579-16.25 4.688-16.25 4.688s-2.041-74.59-1.125-89.375c2.5-40.375 16.625-95.869 16.625-95.869s9.875 17.119 12.875 36.744c2.052 13.426 9.611 16.225 9.611 16.225s-9.876 74.264-9.958 78.282c-.082 4.018 1.972 49.993 1.972 49.993z"/></g><g><linearGradient id="male-g" gradientUnits="userSpaceOnUse" x1="-1271.028" y1="347.456" x2="-1271.028" y2="404.404" gradientTransform="matrix(-1 0 0 -1 -1050.092 681.116)"><stop offset="0" stop-color="#B5B5B5"/><stop offset="1" stop-color="#CDCDCD"/></linearGradient><path fill="url(#male-g)" d="M206.754 319.942c6.435 3.166 11.009-20.31 11.435-13.5.354 5.704-.838 11.966-4.834 15.5-8.761 7.751-2.494 12.632-.5 11.576 19.666-10.41 21.334-18.076 22.998-31.774 1.666-13.723-7.271-25.031-16.24-25.031-1.9 0-8.416 6.422-9.258 15.895-.666 7.5-2.488 12.89-3.334 17.834-.85 4.975-2.077 8.61-.267 9.5z"/><path fill="#F9F9F9" d="M237.694 271.609c-.266 10.544-.495 18.234-.495 18.234s-11.621-3.483-15.136-3.973c-9.487-1.324-12.806.583-12.806.583s.33-6.731.711-14.844h27.726z"/><path fill="#424242" d="M208.319 280.942s3.562-2.25 13.75-.688c3.771.579 16.25 4.688 16.25 4.688s2.039-74.59 1.125-89.375c-2.5-40.375-16.764-95.869-16.764-95.869s-10 17.119-13 36.744c-2.053 13.426-9.349 16.225-9.349 16.225s9.876 74.263 9.958 78.282c.083 4.019-1.97 49.993-1.97 49.993z"/></g><path fill="#F9F9F9" d="M180.015 140.366h21v1.852h-21z"/><g><linearGradient id="male-h" gradientUnits="userSpaceOnUse" x1="-40.999" y1="603.169" x2="-40.999" y2="681.173" gradientTransform="matrix(1 0 0 -1 194 681.116)"><stop offset="0" stop-color="#B5B5B5"/><stop offset="1" stop-color="#CDCDCD"/></linearGradient><path fill="url(#male-h)" d="M174.295 8.99c-5.45-5.59-12.98-9.048-21.295-9.048-8.316 0-15.845 3.458-21.295 9.048-5.45 5.59-7.705 13.422-7.705 21.952 0 8.53 2.231 14.872 3.346 25 .323 2.935 9.204 16.282 17.846 21 2.059 1.124 6.208 1 7.808 1 1.601 0 5.749.124 7.808-1 8.644-4.718 17.523-18.065 17.846-21 1.115-10.128 3.348-16.47 3.348-25-.001-8.53-2.257-16.362-7.707-21.952z"/></g></g><path d="M153.182-.058c-4.296 0-8.398.856-12.125 2.415s-7.08 3.821-9.877 6.633c-5.53 5.56-7.86 14.002-8.147 21.056-.287 7.053 1.47 12.716 1.47 12.716l1.87 1.256 1.869 1.257s.57-5.827 1.154-11.782l1.229-12.551c-.033.335 2.474-.533 3.066-.846.591-.312 4.499-2.672 7.266-5.321.882-.844 2.876 1.068 6.429 3.016.862.473 1.816.947 2.868 1.385 3.687 1.534 8.578 2.615 14.948 1.568 2.938-.482 6.586-1.417 10.178-2.969.04-.018.902 9.935 1.573 16.052l1.252 11.448 1.87-1.257 1.869-1.256s1.305-5.664 1.018-12.716c-.287-7.054-2.166-15.497-7.695-21.056-2.799-2.812-6.149-5.074-9.877-6.633s-7.828-2.415-12.125-2.415"/></svg>